<?xml version="1.0" encoding="UTF-8"?>
<svg width="24px" height="24px" viewBox="0 0 24 24" version="1.1" xmlns="http://www.w3.org/2000/svg" xmlns:xlink="http://www.w3.org/1999/xlink">
    <title>download</title>
    <g id="download" stroke="none" stroke-width="1" fill="none" fill-rule="evenodd">
        <path d="M17,18 C17.5522847,18 18,18.4477153 18,19 C18,19.5522847 17.5522847,20 17,20 L7,20 C6.44771525,20 6,19.5522847 6,19 C6,18.4477153 6.44771525,18 7,18 L17,18 Z M12,3 C12.5522847,3 13,3.44771525 13,4 L12.9995,13.17 L15.88,10.29 C16.24,9.93 16.8130178,9.9108284 17.2057897,10.2088894 L17.3,10.29 C17.66,10.65 17.6876923,11.214497 17.3830769,11.6059581 L17.3,11.7 L12.71,16.29 C12.35,16.65 11.785503,16.6776923 11.3940419,16.3730769 L11.3,16.29 L6.71,11.7 C6.32,11.31 6.32,10.68 6.71,10.29 C7.07,9.93 7.63449704,9.90230769 8.02595812,10.2069231 L8.12,10.29 L10.9995,13.17 L11,4 C11,3.44771525 11.4477153,3 12,3 Z" id="Combined-Shape" fill="#59358C"></path>
    </g>
</svg>