<svg width="100" height="100" viewBox="0 0 100 100" fill="none" xmlns="http://www.w3.org/2000/svg">
<path fill-rule="evenodd" clip-rule="evenodd" d="M47.2847 11.6374C47.9076 14.2123 47.9383 16.6733 46.8948 17.2602C46.1108 17.6993 45.1743 17.8829 43.0589 17.2662L44.0304 24.845L38.5884 26.6115L37.813 15.1284C36.1118 13.9488 34.9723 12.33 34.5655 10.1983C33.3936 4.05659 42.1379 3.16437 44.5755 5.77515C45.5348 6.80309 46.4026 8.62945 46.9829 10.5336C47.1206 10.6195 47.2843 10.7332 47.411 10.863C47.6553 11.1085 47.7625 11.4039 47.2847 11.6374Z" fill="#B28B67"/>
<path fill-rule="evenodd" clip-rule="evenodd" d="M37.8904 16.6418C36.043 13.0906 32.9445 11.1563 32.8672 9.37101C32.8158 8.18084 33.287 7.30769 34.2803 6.75132C34.2417 4.37514 35.7691 2.95579 38.8624 2.49419C43.5023 1.80136 46.7485 2.94562 46.6499 7.37909C45.5578 7.66796 44.1348 7.62173 42.4908 8.78069C41.9689 9.14846 41.7315 9.92393 41.7779 11.1067L40.954 11.3246C39.8038 10.2105 38.8863 9.93192 38.2021 10.4888C37.5177 11.0458 37.5669 11.9462 38.3495 13.1895L38.7669 16.41L37.8904 16.6418Z" fill="#383A42"/>
<path fill-rule="evenodd" clip-rule="evenodd" d="M44.3687 9.45696L45.6873 8.81047C45.6873 8.81047 44.5374 8.77361 44.3687 9.45696Z" fill="#383A42"/>
<path d="M45.6396 10.3079C45.8008 10.2653 45.8984 10.1061 45.8578 9.95225C45.8171 9.79844 45.6534 9.7083 45.4923 9.75093C45.3311 9.79356 45.2334 9.95282 45.2741 10.1066C45.3148 10.2604 45.4784 10.3505 45.6396 10.3079Z" fill="#383A42"/>
<path fill-rule="evenodd" clip-rule="evenodd" d="M47.5785 13.0165L46.0627 13.1793C46.0627 13.1793 46.3818 14.1978 47.6738 13.738C47.6843 13.7342 47.5785 13.0165 47.5785 13.0165Z" fill="white"/>
<path fill-rule="evenodd" clip-rule="evenodd" d="M53.1133 91.9879L53.7519 97.1268L57.2757 97.8142L56.7636 90.0356L53.1133 91.9879Z" fill="#B28B67"/>
<path fill-rule="evenodd" clip-rule="evenodd" d="M30.701 91.9264L31.3396 97.0653L34.8635 97.7527L34.3513 89.9741L30.701 91.9264Z" fill="#B28B67"/>
<path fill-rule="evenodd" clip-rule="evenodd" d="M31.3863 50.9513L30.1857 93.8417H34.8203L42.324 63.7935L50.2714 73.4046L53.3944 93.8965L56.9961 93.8899L57.2066 70.6045L51.1944 50.3779L31.3863 50.9513Z" fill="#8CA9D9"/>
<path fill-rule="evenodd" clip-rule="evenodd" d="M68.3113 12.0069L52.3142 12.5603L51.3969 10.04L64.0774 0.374771L68.3113 12.0069Z" fill="#7646BA"/>
<path fill-rule="evenodd" clip-rule="evenodd" d="M53.1236 96.4717C52.8614 97.1595 52.7294 97.6747 52.7275 98.0171C52.7251 98.4333 52.7909 99.041 52.9251 99.8405L65.9448 99.9145C66.2896 98.798 66.0977 98.193 65.3692 98.0995C64.6408 98.0063 64.0357 97.9223 63.5539 97.8477L57.5179 95.1156C57.4018 95.063 57.2649 95.1146 57.2123 95.2306C57.2116 95.2327 57.2106 95.2345 57.2097 95.2366L56.8154 96.1781C56.1388 96.4891 55.5895 96.6434 55.1677 96.641C54.8249 96.6391 54.3523 96.4979 53.7498 96.2174C53.5186 96.1099 53.244 96.2102 53.1365 96.4413C53.1318 96.4512 53.1276 96.4614 53.1236 96.4717Z" fill="#A7AAB4"/>
<path fill-rule="evenodd" clip-rule="evenodd" d="M30.7115 96.3995C30.4493 97.0873 30.3173 97.6024 30.3154 97.9448C30.313 98.361 30.3788 98.9687 30.513 99.7682L43.5327 99.8422C43.8775 98.7257 43.6856 98.1207 42.9571 98.0272C42.2287 97.934 41.6236 97.85 41.1418 97.7755L35.1058 95.0433C34.9897 94.9907 34.8528 95.0423 34.8002 95.1584C34.7994 95.1604 34.7985 95.1623 34.7976 95.1643L34.4033 96.1058C33.7267 96.4168 33.1774 96.5711 32.7556 96.5687C32.4128 96.5668 31.9402 96.4256 31.3376 96.1452C31.1065 96.0377 30.8319 96.1379 30.7244 96.3691C30.7197 96.379 30.7155 96.3891 30.7115 96.3995Z" fill="#A7AAB4"/>
<path fill-rule="evenodd" clip-rule="evenodd" d="M55.9483 10.3379L54.887 7.33789L53.2571 8.60335L54.6251 12.4716L54.6541 12.4696L56.3415 17.2421L58.188 16.5874L55.9745 10.3299L55.9483 10.3379Z" fill="#59358C"/>
<path fill-rule="evenodd" clip-rule="evenodd" d="M69.4167 0.165038C69.5434 0.256426 69.5723 0.431696 69.4808 0.558685L67.4599 3.36126C67.3691 3.48714 67.1929 3.51617 67.0661 3.42478C66.9394 3.3334 66.9113 3.15702 67.0021 3.03114L69.0229 0.228565C69.1145 0.101576 69.2899 0.0736493 69.4167 0.165038Z" fill="#59358C"/>
<path fill-rule="evenodd" clip-rule="evenodd" d="M68.7674 7.39956C68.747 7.55447 68.8547 7.69571 69.0099 7.71615L72.4356 8.1673C72.5894 8.18757 72.7314 8.07922 72.7518 7.92431C72.7722 7.76939 72.6631 7.62798 72.5093 7.60772L69.0836 7.15656C68.9284 7.13612 68.7878 7.24465 68.7674 7.39956Z" fill="#59358C"/>
<path fill-rule="evenodd" clip-rule="evenodd" d="M67.9901 5.40241C68.0499 5.54679 68.2138 5.6153 68.3584 5.55546L71.5512 4.23468C71.6946 4.17535 71.7635 4.01056 71.7038 3.86618C71.644 3.72179 71.4789 3.6538 71.3355 3.71312L68.1427 5.0339C67.998 5.09375 67.9304 5.25802 67.9901 5.40241Z" fill="#59358C"/>
<path fill-rule="evenodd" clip-rule="evenodd" d="M55.3208 27.0736L56.6721 20.8157L56.4855 19.3209C55.6275 17.4389 55.3572 17.3186 55.1724 15.9806C55.1269 15.6495 55.0566 14.0748 55.3429 13.8773C55.5505 13.734 56.17 15.2282 56.3356 14.9903C56.6338 14.5626 57.1291 13.0961 57.3291 13.1192C57.7248 13.1648 58.5236 14.0283 58.9442 14.7549C59.1025 15.0287 59.2186 15.6046 59.2144 16.4463C59.2121 16.9171 59.0943 17.5218 58.8328 19.5844L59.2933 21.1148L58.5329 28.6186L55.3208 27.0736Z" fill="#B28B67"/>
<path fill-rule="evenodd" clip-rule="evenodd" d="M42.321 20.9771C39.4922 21.002 39.3401 19.2742 37.0243 19.5577C34.9749 19.8084 32.6253 20.3618 31.049 21.5572C27.6506 24.1341 25.3273 37.7502 25.3273 37.7502L30.2232 50.9921L31.0889 44.3228L30.1826 36.8674L32.8399 30.831L29.9991 52.7189L52.1724 51.0824L48.0179 31.2626L57.6993 36.1977L59.3148 20.321H55.8694L54.6799 28.0394C54.6799 28.0394 51.8483 22.5106 49.614 21.0669C48.291 20.2123 46.0397 19.73 44.0732 19.5173C42.7175 19.3707 43.6283 20.9656 42.321 20.9771Z" fill="#59358C"/>
</svg>
