<?xml version="1.0" encoding="UTF-8"?>
<svg width="36px" height="36px" viewBox="0 0 36 36" version="1.1" xmlns="http://www.w3.org/2000/svg" xmlns:xlink="http://www.w3.org/1999/xlink">
    <title>rating-4-checked</title>
    <g id="Screens" stroke="none" stroke-width="1" fill="none" fill-rule="evenodd">
        <g id="Introduction-session-(rating-unselected)" transform="translate(-471.000000, -1269.000000)">
            <g id="Rating/complete-selected-Copy-3" transform="translate(471.000000, 1269.000000)">
                <circle id="Oval-Copy-5" fill="#8CBF3E" cx="18" cy="18" r="18"></circle>
                <g id="Rating/1" transform="translate(4.000000, 5.000000)" fill="#FFFFFF">
                    <path d="M10.19,0.268333333 C11.5025,0.399583333 12.7770833,1.89 13.0454167,2.28083333 L15.055,5.1975 C15.2771217,5.52260153 15.629309,5.73540356 16.0204167,5.78083333 C16.4248472,5.8309735 16.8314093,5.70571417 17.1375,5.43666667 C18.1557627,4.56872076 19.2774731,3.83005736 20.4770833,3.2375 C20.8519555,3.04876823 21.2679892,2.95653907 21.6875,2.96916667 C23.1079167,3.01583333 23.9829167,3.33375 24.3708333,3.955 C24.6355327,4.40944797 24.6432769,4.96923697 24.39125,5.43083333 C24.1649396,5.91783837 23.7832989,6.31589373 23.30625,6.5625 C20.3429167,8.16666667 19.3454167,13.39625 19.0654167,15.4233333 C19.7076763,15.4200275 20.308882,15.7386994 20.6666667,16.2720833 L23.0583333,19.8566667 C23.6416293,20.7342075 23.4056144,21.9181941 22.5304167,22.505 L14.9791667,27.5333333 C14.5579999,27.8138456 14.0426303,27.9155115 13.5464882,27.8159548 C13.050346,27.7163982 12.6140944,27.4237786 12.33375,27.0025 L9.94208333,23.4179167 C9.35507895,22.5446544 9.58607011,21.3609878 10.4583333,20.7725 L10.75,20.5829167 C10.6020406,20.5220277 10.4603936,20.4468082 10.3270833,20.3583333 L8.34958333,19.0225 C8.07354631,18.8383576 7.83664236,18.6014537 7.6525,18.3254167 L3.38541667,12.0691667 L3.36791667,12.0341667 C3.24541667,11.795 3.11125,11.5616667 2.98,11.3341667 C2.47541667,10.4591667 1.90375,9.48208333 2.63583333,8.49625 C3.18416667,7.7525 3.9775,7.81375 4.64833333,8.06166667 C4.35666667,7.2975 4.16416667,6.38458333 4.74166667,5.72833333 C5.14699389,5.20200709 5.84240451,4.99209394 6.47125,5.20625 C6.22763755,4.60314788 6.31607281,3.91666921 6.70458333,3.395 C7.12096047,2.85275498 7.83697984,2.63677537 8.48375,2.85833333 C8.23,2.15833333 8.19208333,1.37666667 8.8775,0.720416667 C9.22307631,0.377309713 9.70643239,0.210820395 10.19,0.268333333 Z M11.1175,21.74375 C10.7769332,21.9701549 10.6842414,22.4296973 10.9104167,22.7704167 L13.3020833,26.355 C13.5295905,26.6959294 13.9900392,26.7885408 14.3316667,26.5620833 L21.8683333,21.53375 C22.0322338,21.4245336 22.1458976,21.2545471 22.184208,21.0613532 C22.2225184,20.8681593 22.1823216,20.6676622 22.0725,20.5041667 L19.6808333,16.9166667 C19.4534892,16.5771064 18.9941281,16.4857562 18.6541667,16.7125 L13.1825,20.3641667 L11.1175,21.74375 Z M9.68833333,1.55166667 C9.27416667,1.95416667 9.53958333,2.56375 10.1666667,3.5525 C10.295,3.74791667 10.4029167,3.92 10.4845833,4.0775 L10.6975,4.50625 L10.3358333,4.79791667 C9.96541667,5.08958333 9.60666667,4.81833333 9.46083333,4.69583333 C8.04916667,3.58458333 7.71083333,3.98416667 7.61458333,4.1125 C7.28208333,4.52375 7.86833333,5.50666667 8.15125,5.97916667 C8.38458333,6.37 8.51583333,6.58583333 8.44291667,6.8775 L8.37,7.13125 L8.15708333,7.25375 C7.75166667,7.48416667 7.42208333,7.19833333 7.13041667,6.9475 C6.20875,6.14833333 5.89958333,6.16291667 5.62833333,6.47791667 C5.35708333,6.79291667 5.81208333,7.82541667 6.03958333,8.3125 C6.30208333,8.8725 6.52958333,9.35666667 6.10375,9.70666667 C5.75666667,9.99833333 5.40375,9.77666667 5.09458333,9.58416667 C4.47916667,9.20208333 3.81708333,8.85791667 3.57791667,9.17583333 C3.33875,9.49375 3.49333333,9.87583333 3.995,10.7391667 C4.12916667,10.9695833 4.26625,11.2058333 4.3975,11.4654167 L8.62083333,17.675 C8.72114343,17.8258304 8.84994269,17.9556204 9,18.0570833 L10.9775,19.39 C11.4485114,19.7062316 12.0639886,19.7062316 12.535,19.39 L17.8345833,15.8579167 C17.9920833,14.35875 18.9166667,7.58333333 22.7579167,5.54166667 C23.0116505,5.4172644 23.2168477,5.21206712 23.34125,4.95833333 C23.3879167,4.86208333 23.4520833,4.66666667 23.3908333,4.58208333 C23.3295833,4.4975 23.0758333,4.19125 21.66125,4.14458333 C21.4335997,4.13948252 21.2082017,4.19057274 21.005,4.29333333 C19.8949796,4.84359431 18.8574796,5.52938278 17.91625,6.335 C17.3560362,6.82485677 16.612698,7.05104395 15.8745833,6.95625 C15.1528553,6.86359314 14.504748,6.46794005 14.0925,5.86833333 L12.0829167,2.95166667 C11.75625,2.47333333 10.7470833,1.49333333 10.0733333,1.43791667 C9.93420127,1.41222734 9.79116362,1.45448846 9.68833333,1.55166667 Z" id="Shape"></path>
                </g>
            </g>
        </g>
    </g>
</svg>