<svg width="100" height="100" viewBox="0 0 100 100" fill="none" xmlns="http://www.w3.org/2000/svg">
<path fill-rule="evenodd" clip-rule="evenodd" d="M47.5717 15.3671C47.3685 16.8533 46.8791 18.0344 46.0529 18.3344C44.9048 18.7511 44.2657 18.6294 42.6639 17.6633L43.1438 24.21H37.207L38.4911 15.8314C37.3513 14.4926 37.3396 11.6976 37.4685 9.85912C37.84 4.56152 45.209 5.72699 46.6424 8.40064C47.0991 9.25214 47.4186 10.4915 47.5743 11.81C47.7027 11.9418 47.8715 12.1336 47.9827 12.3304C48.1599 12.6441 48.1899 12.9701 47.6721 13.0829C47.6909 13.5992 47.6837 14.1126 47.6494 14.6052L46.1991 14.3835C46.1991 14.3835 46.2464 15.4368 47.5717 15.3671Z" fill="#B28B67"/>
<path fill-rule="evenodd" clip-rule="evenodd" d="M43.8642 6.0047C43.0951 5.76539 41.9788 5.68427 41.509 5.7392C41.7763 5.0858 41.8823 4.35808 41.7959 3.64953C41.7118 2.96099 41.4969 2.66931 41.2314 2.04912C40.6733 0.746134 38.6042 -0.549186 36.3845 0.241334C34.7113 0.837258 33.4401 2.09127 33.6385 4.34999C33.6927 4.96721 34.1936 6.25316 34.7061 6.8427C35.1638 7.36879 35.8362 7.71604 36.4851 7.86805C36.0544 8.37051 35.7675 8.99837 35.5556 9.63709C35.3251 10.3307 35.1203 11.0497 35.1302 11.7857C35.1544 13.6112 36.2632 15.6794 37.8137 16.0311C38.3304 16.1484 38.9296 16.1218 39.329 15.7006C39.4729 15.5488 39.6311 15.3581 39.7361 15.1726C39.7739 15.1058 39.7967 15.0621 39.7509 14.997C39.6958 14.9191 39.6071 14.8592 39.5363 14.7981C39.1338 14.4498 38.8847 13.9848 38.8219 13.4323C38.758 12.8718 38.9056 12.1483 39.4397 11.9035C40.099 11.6016 40.8251 11.9482 41.4111 12.2714C41.66 11.3744 42.1715 10.5668 42.9732 10.1553C43.86 9.70011 44.8778 9.64688 45.7891 9.25641C46.0267 9.15464 46.2687 9.03903 46.4434 8.83166C46.5165 8.74501 46.6023 8.6326 46.6315 8.51805C46.6697 8.36732 46.5745 8.24127 46.501 8.12375C46.1115 7.50143 44.6333 6.244 43.8642 6.0047Z" fill="#383A42"/>
<path d="M71.7052 14.0967L70.8986 14.1719L78.2233 92.749L79.0299 92.6738L71.7052 14.0967Z" fill="#383A42"/>
<path fill-rule="evenodd" clip-rule="evenodd" d="M19.2231 87.242L17.871 91.7259L20.5339 93.5839L22.9565 86.9629L19.2231 87.242Z" fill="#B28B67"/>
<path fill-rule="evenodd" clip-rule="evenodd" d="M52.4725 85.3889L53.05 90.0365L56.237 90.6582L55.7738 83.6232L52.4725 85.3889Z" fill="#B28B67"/>
<path fill-rule="evenodd" clip-rule="evenodd" d="M45.3612 10.2854L46.8407 9.98974C46.8407 9.98974 45.7083 9.65104 45.3612 10.2854Z" fill="#383A42"/>
<path d="M46.4039 11.4678C46.5751 11.4678 46.714 11.3354 46.714 11.1719C46.714 11.0085 46.5751 10.876 46.4039 10.876C46.2326 10.876 46.0938 11.0085 46.0938 11.1719C46.0938 11.3354 46.2326 11.4678 46.4039 11.4678Z" fill="#383A42"/>
<path fill-rule="evenodd" clip-rule="evenodd" d="M32.815 48.2608L18.2618 87.8653L22.4619 88.9962L41.816 59.4885L49.8949 68.5676L52.7193 87.1007L55.9767 87.0947L56.1671 66.0353L50.7296 47.7422L32.815 48.2608Z" fill="#59358C"/>
<path fill-rule="evenodd" clip-rule="evenodd" d="M68.7257 3.83301L88.3538 11.308L69.9796 17.0676L68.7257 3.83301Z" fill="#7646BA"/>
<path fill-rule="evenodd" clip-rule="evenodd" d="M17.4204 90.2787C16.8539 90.6283 16.4758 90.9256 16.2861 91.1703C16.0555 91.4678 15.7685 91.9403 15.4251 92.5881L24.7318 99.8021C25.5934 99.1902 25.7884 98.6503 25.3168 98.1825C24.845 97.7149 24.4569 97.3218 24.152 97.0033L21.3211 91.7219C21.2667 91.6203 21.14 91.582 21.0384 91.6364C21.0368 91.6375 21.0351 91.6383 21.0333 91.6393L20.2324 92.0983C19.5756 91.9495 19.0963 91.7582 18.7949 91.5245C18.5498 91.3346 18.2881 90.9732 18.0098 90.4405C17.903 90.2362 17.6507 90.1571 17.4464 90.264C17.4376 90.2685 17.429 90.2734 17.4204 90.2787Z" fill="#A7AAB4"/>
<path fill-rule="evenodd" clip-rule="evenodd" d="M52.4914 89.4284C52.2543 90.0505 52.1349 90.5164 52.1332 90.826C52.131 91.2024 52.1905 91.752 52.3119 92.4751L64.087 92.542C64.3988 91.5323 64.2253 90.9851 63.5664 90.9006C62.9076 90.8163 62.3604 90.7403 61.9246 90.6729L56.4656 88.2019C56.3606 88.1543 56.2368 88.201 56.1892 88.3059C56.1886 88.3078 56.1877 88.3095 56.1869 88.3113L55.8302 89.1628C55.2184 89.4441 54.7215 89.5837 54.3401 89.5815C54.0301 89.5797 53.6026 89.452 53.0577 89.1984C52.8486 89.1012 52.6003 89.1918 52.5031 89.4009C52.4988 89.4099 52.495 89.419 52.4914 89.4284Z" fill="#A7AAB4"/>
<path fill-rule="evenodd" clip-rule="evenodd" d="M61.4901 28.1633L68.0281 23.1116C68.9949 21.51 68.9466 21.2469 69.8511 20.4257C70.075 20.2227 71.2146 19.3661 71.5082 19.479C71.7211 19.5608 71.1869 20.6602 71.4491 20.6625C71.9204 20.6667 72.4886 20.0282 72.5733 20.1892C72.7414 20.5079 72.8299 22.0345 72.6919 22.6154C72.6257 22.8935 72.1978 23.2542 71.5673 23.6808C71.2147 23.9194 70.7031 24.1403 69.0299 24.9983L64.5818 30.5824L61.4901 28.1633Z" fill="#B28B67"/>
<path fill-rule="evenodd" clip-rule="evenodd" d="M41.7781 19.707C41.7781 19.707 35.5685 19.3758 32.5318 21.6784C29.4583 24.009 24.6093 36.2491 24.6093 36.2491L31.9492 46.9276L32.5587 42.2613L30.4809 35.3634L34.1515 30.0657L31.5823 49.8613L51.636 48.3812L47.8786 30.4561L57.4743 38.7023L69.3208 25.3239L67.2915 23.6407L58.2585 30.53C58.2585 30.53 52.0689 23.0388 49.3221 21.235C47.1775 19.8266 41.7781 19.707 41.7781 19.707Z" fill="#8CA9D9"/>
</svg>
