<?xml version="1.0" encoding="UTF-8"?>
<svg width="36px" height="36px" viewBox="0 0 36 36" version="1.1" xmlns="http://www.w3.org/2000/svg" xmlns:xlink="http://www.w3.org/1999/xlink">
    <title>rating-5-checked</title>
    <g id="Screens" stroke="none" stroke-width="1" fill="none" fill-rule="evenodd">
        <g id="Introduction-session-(rating-unselected)" transform="translate(-511.000000, -1269.000000)">
            <g id="Rating/complete-selected-Copy-4" transform="translate(511.000000, 1269.000000)">
                <circle id="Oval-Copy-5" fill="#2FA736" cx="18" cy="18" r="18"></circle>
                <g id="Rating/1" transform="translate(4.000000, 5.000000)" fill="#FFFFFF">
                    <path d="M26.6294931,10.4080254 C25.8048259,9.4262197 23.9146094,9.19835077 23.4526824,9.19835077 L20.0066505,9.15052643 C19.6229755,9.1481081 19.2591567,8.98086645 19.0091149,8.69197536 C18.7538865,8.39177619 18.6394913,7.99789971 18.6945511,7.60889463 C18.8476726,6.32734202 18.8410099,5.0319356 18.6747138,3.75200194 C18.6256999,3.34673532 18.4757053,2.95998616 18.238292,2.62672325 C17.4334621,1.50144457 16.7023139,0.978189983 15.991003,1.00069556 C15.4820244,1.03068814 15.0260741,1.32318192 14.7894261,1.77151145 C14.512405,2.21734949 14.3909083,2.74130578 14.4436894,3.26250571 C14.7695888,6.48361594 11.071339,10.0901341 9.5835374,11.4010838 C9.24109966,10.8877789 8.66208442,10.5792554 8.04189153,10.5796304 L3.85620964,10.5796304 C2.83170047,10.5811795 2.00156057,11.4052525 2,12.4222742 L2,21.1600632 C2.00156344,22.1766285 2.83215905,22.9999477 3.85620964,22.9999477 L8.04189153,22.9999477 C8.5358878,23.0036431 9.01094952,22.8114607 9.36159554,22.4660184 C9.71224155,22.120576 9.90945124,21.6504635 9.9094368,21.1600632 L9.9094368,20.8337324 C10.0404783,20.9189901 10.1789483,20.9924265 10.3231873,21.0531617 L12.4599539,21.9252527 C12.7572266,22.0479697 13.0760253,22.1110723 13.3979774,22.1109237 L20.7661378,22.18688 L20.8058125,22.18688 C21.0636981,22.1559348 21.3272515,22.1390556 21.5794693,22.1221765 C22.5543336,22.0630993 23.6567238,21.9927694 24.0619726,20.8787435 C24.3652007,20.0347845 23.8862703,19.4383868 23.3279904,19.0332865 C24.1016473,18.8588683 24.940484,18.5240979 25.1671966,17.7054576 C25.3754074,17.0951122 25.1650699,16.4210505 24.6457576,16.0344188 C25.2643569,15.9065905 25.7706042,15.4669948 25.9805282,14.8753817 C26.1944397,14.2523832 25.9847215,13.5633346 25.4590891,13.1621449 C26.1590644,12.9877267 26.8080293,12.5995056 26.9723959,11.6992826 C27.0607137,11.2395334 26.9346466,10.7648072 26.6294931,10.4080254 Z M8.77587366,21.1600632 C8.77587366,21.5546993 8.45360258,21.8746151 8.05606107,21.8746151 L3.85620964,21.8746151 C3.45820709,21.8746151 3.13512393,21.555154 3.13356314,21.1600632 L3.13356314,12.4222742 C3.13356314,12.2320171 3.20969889,12.0495525 3.3452214,11.9150204 C3.48074391,11.7804884 3.66455187,11.7048207 3.85620964,11.7048207 L8.04189153,11.7048207 C8.23550576,11.7018938 8.42223934,11.7761399 8.56022349,11.9110001 C8.69820764,12.0458604 8.77587366,12.2300513 8.77587366,12.4222742 L8.77587366,21.1600632 L8.77587366,21.1600632 Z M25.8530023,11.4995457 C25.7509817,12.0453058 25.1161863,12.1606469 23.9741214,12.1803393 C23.7474088,12.1803393 23.5518692,12.1803393 23.3818347,12.2056581 L22.9170738,12.2647352 L22.8717313,12.7148467 C22.8263888,13.1733977 23.248641,13.3112444 23.4385129,13.3703215 C25.1020168,13.9076421 24.9518196,14.3830723 24.9036432,14.5406113 C24.7477783,15.0301076 23.6368864,15.0835583 23.1041117,15.1032507 C22.6620221,15.1257562 22.418306,15.137009 22.2227664,15.3536252 L22.0583997,15.5477357 L22.0583997,15.7840443 C22.0895727,16.2313425 22.4976554,16.3466836 22.8603957,16.4423323 C23.9939588,16.7574103 24.1554915,17.0049716 24.0506369,17.3988192 C23.9457824,17.7926667 22.8603957,17.9614585 22.3502922,18.0486676 C21.7580055,18.1386899 21.2450682,18.2174594 21.1912239,18.7435272 C21.1458814,19.1795727 21.5114555,19.3427381 21.834521,19.4890243 C22.4749842,19.770344 23.1126135,20.1248068 22.9680842,20.4877092 C22.8235549,20.8506115 22.4523129,20.9293811 21.4831164,20.9884582 C21.2450682,21.013777 20.9616774,21.0278429 20.6782866,21.0587881 L13.3979774,20.985645 C13.2210046,20.9860165 13.0457095,20.9515961 12.8822061,20.8843699 L10.7397718,20.0122789 C10.2331032,19.802009 9.90493487,19.3083507 9.90939106,18.7632196 L9.90939106,12.619198 C11.0429999,11.6908431 16.0080065,7.33320135 15.5772525,3.14997784 C15.546222,2.88088748 15.6049575,2.6091209 15.7444531,2.37634875 C15.7982973,2.28913965 15.9088197,2.14004022 16.0278438,2.13712115 C16.146868,2.13441383 16.515276,2.17942498 17.314438,3.29063768 C17.4416712,3.47002529 17.5224536,3.67775165 17.5496524,3.89547497 C17.7013823,5.08046155 17.7051896,6.27950903 17.560988,7.4654216 C17.4665737,8.17611167 17.6832,8.89292223 18.1561086,9.43465929 C18.6196958,9.96372239 19.288989,10.2708419 19.9953148,10.2786183 L23.4385129,10.3236295 C24.0052944,10.3236295 25.3258955,10.6218283 25.7453138,11.1253905 C25.8400269,11.2254956 25.880144,11.3648794 25.8530023,11.4995457 L25.8530023,11.4995457 Z" id="Shape"></path>
                </g>
            </g>
        </g>
    </g>
</svg>