<?xml version="1.0" encoding="UTF-8"?>
<svg width="36px" height="36px" viewBox="0 0 36 36" version="1.1" xmlns="http://www.w3.org/2000/svg" xmlns:xlink="http://www.w3.org/1999/xlink">
    <title>rating-2-checked</title>
    <g id="Screens" stroke="none" stroke-width="1" fill="none" fill-rule="evenodd">
        <g id="Introduction-session-(rating-unselected)" transform="translate(-391.000000, -1269.000000)">
            <g id="Rating/complete-selected-Copy" transform="translate(391.000000, 1269.000000)">
                <circle id="Oval-Copy-5" fill="#E57714" cx="18" cy="18" r="18"></circle>
                <g id="Rating/1" transform="translate(4.000000, 5.000000)" fill="#FFFFFF">
                    <path d="M10.19,26.8425 C11.5025,26.71125 12.7770833,25.2208333 13.0454167,24.83 L15.055,21.9133333 C15.2771217,21.5882318 15.629309,21.3754298 16.0204167,21.33 C16.4244515,21.2786869 16.8311123,21.4029149 17.1375,21.67125 C18.1550775,22.5409155 19.276885,23.2806226 20.4770833,23.8733333 C20.8519555,24.0620651 21.2679892,24.1542943 21.6875,24.1416667 C23.1079167,24.095 23.9829167,23.7741667 24.3708333,23.1529167 C24.6355873,22.6995308 24.6433355,22.1405499 24.39125,21.68 C24.1641832,21.1927866 23.7828376,20.7940139 23.30625,20.5454167 C20.3429167,18.9704167 19.3454167,13.7291667 19.0654167,11.6991667 C19.7111241,11.7019055 20.3141051,11.3768009 20.6666667,10.8358333 L23.0583333,7.25125 C23.6413448,6.37461787 23.4052509,5.19153925 22.5304167,4.60583333 L14.9791667,-0.416666667 C14.1025345,-0.999678171 12.9194559,-0.763584202 12.33375,0.11125 L9.94208333,3.69583333 C9.3587575,4.56886845 9.58931953,5.74903344 10.4583333,6.33833333 L10.75,6.525 C10.6025253,6.58806919 10.4609889,6.66420602 10.3270833,6.7525 L8.34958333,8.08541667 C8.07408671,8.27140981 7.83734123,8.50914586 7.6525,8.78541667 L3.38541667,15.0416667 L3.36791667,15.0766667 C3.24541667,15.31875 3.11125,15.5520833 2.98,15.7766667 C2.47541667,16.6516667 1.90375,17.6316667 2.63583333,18.6175 C3.18416667,19.36125 3.9775,19.2970833 4.64833333,19.0520833 C4.35666667,19.8133333 4.16416667,20.72625 4.74166667,21.3854167 C5.14569951,21.9135821 5.84179947,22.1248772 6.47125,21.9104167 C6.22763755,22.5135188 6.31607281,23.1999975 6.70458333,23.7216667 C7.12202803,24.2623639 7.83694622,24.4780113 8.48375,24.2583333 C8.23,24.9583333 8.19208333,25.74 8.8775,26.39625 C9.22413869,26.7372353 9.70735633,26.9015293 10.19,26.8425 L10.19,26.8425 Z M11.1175,5.36708333 C10.7765706,5.13957613 10.6839592,4.67912751 10.9104167,4.3375 L13.3020833,0.75 C13.5305274,0.410076733 13.990796,0.318805329 14.3316667,0.545833333 L21.8683333,5.57708333 C22.0320404,5.68575448 22.1456452,5.85522965 22.18397,6.04794867 C22.2222948,6.24066769 22.1821742,6.44071327 22.0725,6.60375 L19.6808333,10.1883333 C19.5726225,10.3525138 19.4033598,10.4667153 19.2106081,10.5055942 C19.0178564,10.5444731 18.8175592,10.5048135 18.6541667,10.3954167 L13.1825,6.74666667 L11.1175,5.36708333 Z M9.68833333,25.55625 C9.27416667,25.1566667 9.53958333,24.5470833 10.1725,23.5583333 C10.3008333,23.3629167 10.40875,23.1908333 10.4904167,23.0333333 L10.7033333,22.6016667 L10.3416667,22.31 C9.97125,22.0183333 9.6125,22.2895833 9.46666667,22.4120833 C8.055,23.5233333 7.71666667,23.1208333 7.62041667,22.9954167 C7.28791667,22.5841667 7.87416667,21.60125 8.15708333,21.12875 C8.39041667,20.7379167 8.52166667,20.5220833 8.44875,20.2304167 L8.37583333,19.9766667 L8.16291667,19.8541667 C7.7575,19.62375 7.42791667,19.9095833 7.13625,20.1458333 C6.21458333,20.945 5.90541667,20.9304167 5.63416667,20.6154167 C5.36291667,20.3004167 5.81791667,19.2679167 6.04541667,18.7808333 C6.30791667,18.2179167 6.53541667,17.73375 6.10958333,17.3866667 C5.7625,17.095 5.40958333,17.3166667 5.10041667,17.5091667 C4.485,17.8883333 3.82291667,18.2354167 3.58375,17.9145833 C3.34458333,17.59375 3.49916667,17.2175 4.00083333,16.3541667 C4.135,16.12375 4.27208333,15.8845833 4.40333333,15.6279167 L8.62083333,9.43583333 C8.72114343,9.28500294 8.84994269,9.15521293 9,9.05375 L10.9775,7.72083333 C11.4480231,7.40300245 12.0644769,7.40300245 12.535,7.72083333 L17.8345833,11.25 C17.9920833,12.7520833 18.9108333,19.5158333 22.7579167,21.5633333 C23.0121767,21.6869982 23.2175852,21.8924066 23.34125,22.1466667 C23.3879167,22.2429167 23.4520833,22.42375 23.3908333,22.52 C23.3295833,22.61625 23.0758333,22.91375 21.66125,22.9575 C21.4338214,22.9637454 21.2083784,22.9136469 21.005,22.8116667 C19.8956047,22.26032 18.8582336,21.5746167 17.91625,20.77 C17.3560362,20.2801432 16.612698,20.053956 15.8745833,20.14875 C15.1523505,20.2399676 14.5036985,20.6359531 14.0925,21.2366667 L12.0829167,24.1533333 C11.75625,24.6316667 10.7470833,25.6116667 10.0733333,25.6670833 C9.93463009,25.6945215 9.7912175,25.653236 9.68833333,25.55625 Z" id="Shape"></path>
                </g>
            </g>
        </g>
    </g>
</svg>