<?xml version="1.0" encoding="UTF-8"?>
<svg width="37px" height="37px" viewBox="0 0 37 37" version="1.1" xmlns="http://www.w3.org/2000/svg" xmlns:xlink="http://www.w3.org/1999/xlink">
    <title>rating-3</title>
    <g id="Symbols" stroke="none" stroke-width="1" fill="none" fill-rule="evenodd">
        <g id="Feedback/first-evaluation/complete" transform="translate(-489.000000, -5.000000)">
            <g id="Group-3" transform="translate(480.500000, 0.000000)">
                <g id="Rating/complete-Copy-2" transform="translate(9.000000, 5.500000)">
                    <circle id="Oval-Copy-5" stroke="#F1AC00" fill="#FFFFFF" cx="18" cy="18" r="17.5"></circle>
                    <g id="Shape" transform="translate(4.000000, 5.000000)" fill="#F1AC00">
                        <path d="M17.5919746,25.6344814 C18.5737803,24.8181507 18.798836,22.9275513 18.8044624,22.4655308 L18.8522868,19.0188009 C18.8536635,18.6311643 19.0232531,18.2635288 19.3164642,18.0125598 C19.6145831,17.7596258 20.0048794,17.6453569 20.3911054,17.6979324 C21.672658,17.8510849 22.9680644,17.8444208 24.2479981,17.678091 C24.6532647,17.6290672 25.0400138,17.4790422 25.3732767,17.2415808 C26.4985554,16.436588 27.02181,15.7052916 26.9993044,14.9938367 C26.9693119,14.484755 26.6768181,14.0287123 26.2284885,13.7920164 C25.7826505,13.5149392 25.2586942,13.3934179 24.7374943,13.4462096 C21.5163841,13.7721751 17.9098659,10.0731763 16.5989162,8.58507333 C17.1122211,8.24256624 17.4207446,7.66343373 17.4203696,7.04311523 L17.4203696,2.85658559 C17.4188205,1.83186892 16.5947475,1.00156088 15.5777258,1 L6.83993682,1 C5.82337152,1.00156375 5.00005232,1.8323276 5.00005232,2.85658559 L5.00005232,7.04311523 C4.99635693,7.53721156 5.18853927,8.01236949 5.53398165,8.36308652 C5.87942403,8.71380356 6.3495365,8.91105318 6.83993682,8.91103874 L7.16626764,8.91103874 C7.07882657,9.03726903 7.00257634,9.17100518 6.9383987,9.31070068 L6.07474731,11.4620724 C5.95203028,11.7594054 5.88892773,12.0782686 5.88907633,12.4002859 L5.81312002,19.7699386 L5.81312002,19.8096213 C5.84406518,20.0675592 5.86094436,20.331166 5.87782354,20.5834348 C5.93690067,21.5584966 6.00723059,22.66111 7.12125649,23.0664409 C7.9652155,23.3697305 8.5616132,22.890703 8.96671353,22.3323101 C9.14675812,23.0834478 9.47027574,23.9337924 10.3142348,24.1548819 C10.9151666,24.3573326 11.5774548,24.1549829 11.9655812,23.6503442 C12.095707,24.2675829 12.5362047,24.7715938 13.1274315,24.9797161 C13.75043,25.193671 14.4394786,24.9839103 14.8406683,24.4581715 C15.0150865,25.1582885 15.4033076,25.8073848 16.3035306,25.9717848 C16.761517,26.0607689 17.2349053,25.93684 17.5919746,25.6344814 L17.5919746,25.6344814 Z M6.83993682,7.77724602 C6.44530066,7.77724602 6.12538485,7.45490967 6.12538485,7.05728764 L6.12538485,2.85658559 C6.12538485,2.45850243 6.44484604,2.13535384 6.83993682,2.13379273 L15.5777258,2.13379273 C15.7679829,2.13379273 15.9504475,2.2099439 16.0849796,2.34549385 C16.2195116,2.48104381 16.2951793,2.664889 16.2951793,2.85658559 L16.2951793,7.04311523 C16.2981062,7.23676867 16.2238601,7.42354007 16.0889999,7.56155217 C15.9541396,7.69956427 15.7699487,7.77724602 15.5777258,7.77724602 L6.83993682,7.77724602 L6.83993682,7.77724602 Z M16.5032675,24.8578334 C15.9575074,24.7557921 15.8421663,24.1208682 15.8224739,22.978572 C15.8224739,22.7518134 15.8224739,22.5562342 15.7971551,22.3861653 L15.738078,21.9213103 L15.2879665,21.8759586 C14.8294155,21.8306068 14.6915688,22.2529446 14.6324917,22.4428549 C14.0951711,24.1066957 13.6197409,23.9564682 13.4622019,23.908282 C12.9727056,23.7523855 12.9192549,22.6412686 12.8995625,22.1083861 C12.877057,21.6662069 12.8658042,21.4224415 12.649188,21.2268622 L12.4550775,21.0624623 L12.2187689,21.0624623 C11.7714707,21.0936416 11.6561296,21.501807 11.5604809,21.8646206 C11.2454029,22.9984134 10.9978416,23.1599788 10.603994,23.055103 C10.2101465,22.9502272 10.0413547,21.8646206 9.95414558,21.3544139 C9.86412328,20.7620072 9.78535377,20.248966 9.25928599,20.1951108 C8.8232405,20.1497591 8.66007509,20.5154073 8.51378886,20.8385382 C8.23246919,21.4791311 7.8780064,22.1168895 7.51510403,21.9723309 C7.15220165,21.8277724 7.07343214,21.4564552 7.01435501,20.4870625 C6.98903624,20.248966 6.97215706,19.9655178 6.9383987,19.6820696 L7.01154182,12.3917824 C7.01117032,12.2147738 7.04559068,12.0394432 7.1128169,11.8759067 L7.98490788,9.73303847 C8.18860005,9.21943949 8.68222088,8.88269392 9.23115402,8.88269392 L15.3779888,8.88269392 C16.3063437,10.0164866 20.6639855,14.9824988 24.847209,14.5516576 C25.1162993,14.5206207 25.3880659,14.5793682 25.6208381,14.718892 C25.7080472,14.7727471 25.8571466,14.8832919 25.8600657,15.0023402 C25.862773,15.1213884 25.8177618,15.489871 24.7065491,16.2891949 C24.5271615,16.4164538 24.3194352,16.4972526 24.1017118,16.5244569 C22.918809,16.6854042 21.7207198,16.6987324 20.5345784,16.5641396 C19.8238883,16.4697062 19.1070778,16.6863764 18.5653407,17.1593808 C18.0362776,17.6230619 17.7291581,18.2924907 17.7213817,18.9989595 L17.6735573,22.4456894 C17.6735573,23.0125858 17.3753585,24.3334543 16.8717963,24.7529576 C16.7724468,24.8448875 16.6356692,24.8838116 16.5032675,24.8578334 L16.5032675,24.8578334 Z"></path>
                    </g>
                </g>
            </g>
        </g>
    </g>
</svg>