<?xml version="1.0" encoding="UTF-8"?>
<svg width="36px" height="37px" viewBox="0 0 36 37" version="1.1" xmlns="http://www.w3.org/2000/svg" xmlns:xlink="http://www.w3.org/1999/xlink">
    <title>rating-1</title>
    <g id="Symbols" stroke="none" stroke-width="1" fill="none" fill-rule="evenodd">
        <g id="Feedback/first-evaluation/complete" transform="translate(-359.000000, -5.000000)">
            <g id="Group" transform="translate(353.000000, 0.000000)">
                <g transform="translate(6.000000, 5.500000)">
                    <circle id="Oval-Copy-5" stroke="#E20613" fill="#FFFFFF" cx="18" cy="18" r="17.5"></circle>
                    <g transform="translate(4.000000, 5.000000)" fill="#E20613" id="Shape">
                        <path d="M1.37248595,15.5887097 C2.18603297,16.5702691 4.07958492,16.7952684 4.54163428,16.8008933 L7.98857916,16.8487057 C8.37326264,16.8525325 8.73732791,17.0218535 8.98637899,17.3127667 C9.24494621,17.6103598 9.36350429,18.0031448 9.31236473,18.3927633 C9.15920268,19.6739944 9.16586718,20.9690758 9.33220734,22.2486884 C9.38123414,22.6538534 9.53126852,23.0405055 9.76874477,23.3736848 C10.5737878,24.4986812 11.3051297,25.0218045 12.0137944,24.9993046 C12.523761,24.9697327 12.9808715,24.6773355 13.2185243,24.2286821 C13.4882463,23.7844511 13.6046787,23.2650965 13.5501794,22.7493118 C13.2241936,19.5121347 16.9262578,15.9065212 18.4144535,14.5959004 C18.7586411,15.1115801 19.341643,15.4203649 19.9650118,15.4171478 L24.1432986,15.4171478 C25.1680792,15.415599 25.998439,14.5917328 26,13.5749662 L26,4.83936912 C25.9984361,3.82305883 25.1676205,3 24.1432986,3 L19.9650118,3 C18.9406899,3 18.1098743,3.82305883 18.1083104,4.83936912 L18.1083104,5.16561807 C17.9789013,5.07690732 17.8412715,5.00062572 17.6972849,4.9378063 L15.5514483,4.06593409 C15.2540968,3.94324784 14.9352137,3.88016112 14.6131763,3.88030968 L7.24306394,3.80437243 L7.20904804,3.8128099 C6.9510941,3.8437473 6.68747085,3.86062225 6.43518623,3.87749719 C5.46006367,3.9365595 4.35738147,4.00687178 3.95202529,5.12061822 C3.64871682,5.96436552 4.12493946,6.56061361 4.68620187,6.96561231 C3.90950541,7.14561174 3.07044646,7.4690482 2.84367377,8.3127955 C2.63568616,8.91892074 2.8410698,9.5891223 3.35391232,9.97779018 C2.73749362,10.1041035 2.23111183,10.5384003 2.01595345,11.1252865 C1.80442659,11.7487558 2.01505733,12.4367071 2.5403653,12.8380935 C1.84020462,13.012468 1.1910678,13.4005917 1.0266576,14.3005888 C0.939986841,14.7597461 1.06709008,15.2331727 1.37248595,15.5887097 Z M19.2308352,4.83936912 C19.2315691,4.64768255 19.309613,4.46426471 19.4475501,4.33004833 C19.5854872,4.19583195 19.7718368,4.12198815 19.9650118,4.12490796 L24.1432986,4.12490796 C24.5414066,4.12490796 24.8645753,4.44437745 24.8661366,4.83936912 L24.8661366,13.5749662 C24.8661366,13.9710566 24.542511,14.2921514 24.1432986,14.2921514 L19.9650118,14.2921514 C19.5657994,14.2921514 19.2421739,13.9710566 19.2421739,13.5749662 L19.2421739,4.83936912 L19.2308352,4.83936912 Z M2.14067843,14.5002757 C2.24272614,13.9546525 2.87768967,13.8393403 4.01722244,13.8196529 C4.24682978,13.8196529 4.44242123,13.8196529 4.61250074,13.7943405 L5.07738476,13.7352782 L5.1227393,13.2852796 C5.16809383,12.8268436 4.74289504,12.6890315 4.55580757,12.6299692 C2.89469762,12.0927834 3.04493453,11.6174724 3.09312373,11.4599729 C3.24619529,10.9705995 4.35738147,10.9171622 4.89313195,10.8974747 C5.33533869,10.8749748 5.57911933,10.8637248 5.77471078,10.647163 L5.93912098,10.4531012 L5.92494768,10.2168519 C5.89376644,9.76966584 5.48274094,9.65435371 5.1227393,9.55872902 C3.98887585,9.24373002 3.82446565,8.99623082 3.93218268,8.60248208 C4.0398997,8.20873334 5.1227393,8.03998388 5.63297785,7.95279665 C6.22825616,7.86279694 6.74132937,7.78404719 6.79518788,7.25811138 C6.84054242,6.82217527 6.47487146,6.65905079 6.15172037,6.51280126 C5.51108753,6.23155216 4.87328934,5.8771783 5.01785693,5.51436696 C5.16242452,5.15155562 5.53659945,5.07280587 6.5060527,5.01374356 C6.76400663,4.99686861 7.03046454,4.97999367 7.31109575,4.94905626 L14.6018377,5.02218103 C14.7779181,5.02203244 14.9522889,5.05644273 15.1149109,5.12343071 L17.2607475,5.99530292 C17.774895,6.19830699 18.1119971,6.69220157 18.1111467,7.24123643 L18.1111467,13.3752793 C16.9772816,14.3034013 12.0109597,18.6599499 12.4418278,22.842124 C12.4728666,23.1111469 12.4141155,23.3828453 12.274583,23.615559 C12.2207245,23.7027463 12.1101728,23.8518083 11.9911171,23.8547266 C11.8720615,23.8574333 11.5063905,23.8124334 10.7041821,22.7014995 C10.5723428,22.5224967 10.48758,22.3136967 10.4575668,22.0940014 C10.3029713,20.9096594 10.2963067,19.7109125 10.4377242,18.5249503 C10.5321635,17.8144385 10.3154798,17.0978078 9.84244589,16.5562066 C9.37851315,16.0275707 8.7091836,15.7205929 8.00275245,15.7124593 L4.55580757,15.664647 C3.98887585,15.664647 2.66509028,15.3665229 2.24839546,14.863087 C2.157198,14.7655646 2.11732859,14.6312769 2.14067843,14.5002757 Z"></path>
                    </g>
                </g>
            </g>
        </g>
    </g>
</svg>