<svg width="100" height="101" viewBox="0 0 100 101" fill="none" xmlns="http://www.w3.org/2000/svg">
<path fill-rule="evenodd" clip-rule="evenodd" d="M48.2178 16.609L49.4634 14.1177C49.4634 14.1177 49.1072 9.69306 50.7091 7.88933C50.7091 7.88933 52.468 6.33225 51.9548 9.135L51.3643 10.3807L51.9548 9.8824C51.9548 9.8824 53.2104 9.11507 52.4531 10.6298C52.4531 10.6298 51.9722 13.0763 51.2074 14.3668L50.2108 16.8581L48.2178 16.609Z" fill="#B28B67"/>
<path fill-rule="evenodd" clip-rule="evenodd" d="M88.636 24.8357L89.2476 24.5493L90.5192 22.9353C90.5192 22.9353 91.3165 22.1316 90.9275 23.2762L90.8372 23.7323L91.9703 23.6156C91.9703 23.6156 94.2025 23.8427 91.9947 25.496C91.9947 25.496 90.4803 26.2855 89.6153 25.9007L88.528 26.5871L88.636 24.8357Z" fill="#B28B67"/>
<path fill-rule="evenodd" clip-rule="evenodd" d="M22.5564 12.4633L21.2563 15.049L22.2488 16.2612C22.2488 16.2612 29.189 20.092 28.4638 13.1262L27.4933 12.0019C27.4933 12.0019 30.3097 12.2582 29.3245 5.84177C29.3245 5.84177 28.4053 1.75457 25.6621 2.1794C25.6621 2.1794 23.5013 1.99628 22.366 5.1093L22.7322 6.57424C22.7322 6.57424 20.934 4.46472 20.901 6.57424C20.901 6.57424 20.7912 7.67662 21.9998 8.40543L22.5564 12.4633Z" fill="#B28B67"/>
<path d="M25.8467 6.68771C26.0581 6.68771 26.2295 6.52417 26.2295 6.32239C26.2295 6.12062 26.0581 5.95703 25.8467 5.95703C25.6353 5.95703 25.4639 6.12062 25.4639 6.32239C25.4639 6.52417 25.6353 6.68771 25.8467 6.68771Z" fill="#383A42"/>
<path d="M28.2393 6.26095C28.4507 6.26095 28.6221 6.09741 28.6221 5.89564C28.6221 5.69386 28.4507 5.53027 28.2393 5.53027C28.0278 5.53027 27.8564 5.69386 27.8564 5.89564C27.8564 6.09741 28.0278 6.26095 28.2393 6.26095Z" fill="#383A42"/>
<path fill-rule="evenodd" clip-rule="evenodd" d="M27.2615 4.84891L29.2568 5.28086C29.2568 5.28086 28.2221 4.17793 27.2615 4.84891Z" fill="#383A42"/>
<path fill-rule="evenodd" clip-rule="evenodd" d="M26.2502 5.13166L24.3943 5.69286C24.3943 5.69286 25.2827 4.45308 26.2502 5.13166Z" fill="#383A42"/>
<path fill-rule="evenodd" clip-rule="evenodd" d="M27.0348 6.58177C27.0348 6.58177 27.3153 6.83948 27.4913 7.13917C27.5708 7.27463 27.631 7.41754 27.6202 7.54748C27.6095 7.67733 27.5258 7.78268 27.3385 7.85829C27.3084 7.87053 27.2947 7.91453 27.308 7.95675C27.321 7.99851 27.3561 8.02261 27.3862 8.01038C27.63 7.91217 27.7243 7.75333 27.7384 7.58463C27.7525 7.41654 27.6844 7.22771 27.5815 7.05246C27.3931 6.73171 27.0935 6.45562 27.0935 6.45562C27.0648 6.42908 27.0287 6.43649 27.0125 6.47131C26.9963 6.50612 27.0063 6.55572 27.0348 6.58177Z" fill="#383A42"/>
<path fill-rule="evenodd" clip-rule="evenodd" d="M28.4614 8.72549L26.1978 9.38087C26.1978 9.38087 28.1729 11.5024 28.4614 8.72549Z" fill="white"/>
<path fill-rule="evenodd" clip-rule="evenodd" d="M25.4396 2.19774C25.4396 2.19774 25.1941 4.53792 23.0146 4.92593L22.7114 6.74472C22.7114 6.74472 21.1655 4.90774 20.8926 6.44159C20.8926 6.44159 20.6986 7.92087 22.1052 7.95725V9.47291C22.1052 9.47291 18.4433 8.03606 18.7707 4.31966C18.7707 4.31966 19.4043 1.88248 20.8926 1.59148C20.8926 1.59148 20.6259 -0.409195 24.2271 0.0758162C24.2271 0.0758162 28.8044 0.139474 29.3804 4.92593C29.3804 4.92593 26.4369 3.61337 25.4396 2.19774Z" fill="#383A42"/>
<path fill-rule="evenodd" clip-rule="evenodd" d="M70.2082 11.3476C70.2082 11.3476 70.1619 7.78674 72.8891 6.85227C75.6162 5.91779 77.2699 7.56606 77.3544 10.7019C77.3544 10.7019 78.5695 9.32332 78.7411 11.0451C78.7411 11.0451 78.6403 12.2384 77.5642 12.8323C77.5642 12.8323 77.1201 15.2026 75.1122 15.5568L76.1883 18.3738C76.1883 18.3738 69.0176 20.6433 70.0475 17.1941L72.1153 15.5568C72.1153 15.5568 69.9957 14.9165 70.2082 11.3476Z" fill="#B28B67"/>
<path fill-rule="evenodd" clip-rule="evenodd" d="M71.0205 8.3586C71.0205 8.3586 74.7673 5.59389 77.0117 10.3474L76.7038 11.2711C76.7038 11.2711 78.0338 9.8179 78.2432 11.2711C78.2432 11.2711 78.1601 12.4225 77.3196 12.8104C77.3196 12.8104 80.62 13.5185 81.1003 8.74344C81.1003 8.74344 84.2775 9.30989 83.8249 6.01874C83.7356 5.35373 81.8515 2.15497 78.7358 5.47384C78.7358 5.47384 73.5912 2.00411 71.0205 8.3586Z" fill="#383A42"/>
<path fill-rule="evenodd" clip-rule="evenodd" d="M19.2139 87.4512L19.306 93.6795L22.7939 93.9286L23.0431 87.7003L19.2139 87.4512Z" fill="#B28B67"/>
<path fill-rule="evenodd" clip-rule="evenodd" d="M37.0361 76.623L37.5045 82.4652L40.2649 83.7333L41.2515 76.9843L37.0361 76.623Z" fill="#B28B67"/>
<path fill-rule="evenodd" clip-rule="evenodd" d="M58.96 81.1379L59.7074 86.1206L62.4478 85.6896L61.4513 80.6396L58.96 81.1379Z" fill="#B28B67"/>
<path fill-rule="evenodd" clip-rule="evenodd" d="M74.6002 78.7865L77.2424 82.215L78.4192 80.5477L75.1809 76.7042L74.5 78.5786" fill="#B28B67"/>
<path fill-rule="evenodd" clip-rule="evenodd" d="M20.8019 40.2741L20.7521 68.5632L18.3105 87.9482L23.2932 90.1008L29.544 68.8447L30.7673 51.7342L38.2413 63.3413L36.1137 77.1308L41.6046 78.2619L45.217 62.0284L35.4012 37.9521L20.8019 40.2741Z" fill="#8CA9D9"/>
<path fill-rule="evenodd" clip-rule="evenodd" d="M19.2688 92.5905C19.2688 92.5905 16.7874 95.0071 18.3246 96.8831L23.3072 100.064C23.3072 100.064 27.7319 101.689 24.6127 97.5732L23.3072 95.0818V92.5905C23.3072 92.5905 20.5244 91.9851 20.8159 93.6144L19.2688 92.5905Z" fill="#383A42"/>
<path fill-rule="evenodd" clip-rule="evenodd" d="M36.999 81.3838C36.999 81.3838 35.3796 85.2229 36.999 85.8582L40.736 88.8578C40.736 88.8578 44.4631 91.3142 43.2274 87.6121L41.4137 85.1208L40.736 82.6295C40.736 82.6295 39.9413 81.2493 38.7753 82.6295L37.2482 81.3838" fill="#383A42"/>
<path fill-rule="evenodd" clip-rule="evenodd" d="M57.1777 18.3063L55.9321 15.8149C55.9321 15.8149 56.2883 11.3903 54.6864 9.5866C54.6864 9.5866 52.9275 8.02951 53.4407 10.8323L54.0312 12.0779L53.4407 11.5797C53.4407 11.5797 52.1851 10.8123 52.9425 12.3271C52.9425 12.3271 53.4233 14.7736 54.1881 16.0641L55.1847 18.5554L57.1777 18.3063Z" fill="#B28B67"/>
<path fill-rule="evenodd" clip-rule="evenodd" d="M64.446 34.2149L57.1289 59.1307L58.4443 81.5527H61.9547L63.2303 60.3764L66.9373 47.9197V65.359L74.4114 78.8247L76.9027 77.8157L73.0661 62.8677L76.9027 46.674L73.6914 32.9717L64.446 34.2149Z" fill="#59358C"/>
<path fill-rule="evenodd" clip-rule="evenodd" d="M59.4689 85.6896C59.4689 85.6896 59.7305 88.1436 57.1345 90.2737C54.541 92.4038 54.7677 94.2498 57.1345 93.7466L62.8148 91.2777C62.8148 91.2777 64.2672 90.8392 63.0888 87.7824L63.1162 85.291L59.4689 85.6896Z" fill="#A7AAB4"/>
<path fill-rule="evenodd" clip-rule="evenodd" d="M75.415 81.6412L76.5013 83.2406L76.0578 87.4136C76.0578 87.4136 74.7848 92.486 77.8142 90.7968L80.6344 85.5551C80.6344 85.5551 81.8452 84.4962 79.6105 81.6412L78.6663 80.3955L75.415 81.6412Z" fill="#A7AAB4"/>
<path fill-rule="evenodd" clip-rule="evenodd" d="M53.9795 17.0339L56.9766 30.4871L64.4506 25.5044L63.2124 37.5475H74.6726L76.9073 27.9957L81.89 37.9611L89.364 27.9957L88.1034 25.5044L81.89 30.4871L80.9009 23.0978C80.9009 23.0978 80.156 18.3319 75.9183 17.6617C75.9183 17.6617 69.5628 20.006 70.4373 16.8694C70.4373 16.8694 68.3894 16.7474 64.9564 18.6134L59.4679 22.2756L56.1445 15.5391L53.9795 17.0339Z" fill="#8CA9D9"/>
<path d="M71.3777 10.2253C71.5884 10.2253 71.7592 10.0623 71.7592 9.86123C71.7592 9.66012 71.5884 9.49707 71.3777 9.49707C71.1669 9.49707 70.9961 9.66012 70.9961 9.86123C70.9961 10.0623 71.1669 10.2253 71.3777 10.2253Z" fill="#383A42"/>
<path d="M73.3552 10.5915C73.5659 10.5915 73.7368 10.4285 73.7368 10.2274C73.7368 10.0263 73.5659 9.86328 73.3552 9.86328C73.1445 9.86328 72.9736 10.0263 72.9736 10.2274C72.9736 10.4285 73.1445 10.5915 73.3552 10.5915Z" fill="#383A42"/>
<path fill-rule="evenodd" clip-rule="evenodd" d="M70.8083 8.52454L72.5874 8.88512C72.5874 8.88512 71.7272 8.08434 70.8083 8.52454Z" fill="#383A42"/>
<path fill-rule="evenodd" clip-rule="evenodd" d="M74.6916 9.78283L73.4561 8.76663C73.4561 8.76663 74.8532 8.88882 74.6916 9.78283Z" fill="#383A42"/>
<path fill-rule="evenodd" clip-rule="evenodd" d="M72.3916 10.5071C72.3916 10.5071 72.1242 10.7518 71.956 11.0365C71.8631 11.1938 71.8021 11.3634 71.8146 11.5145C71.8271 11.6662 71.9115 11.8097 72.1312 11.8987C72.1614 11.9109 72.1966 11.8867 72.2097 11.8451C72.223 11.8031 72.2093 11.7591 72.1791 11.7469C72.016 11.6807 71.9425 11.5901 71.9332 11.4775C71.9237 11.3648 71.9769 11.241 72.0462 11.1238C72.2022 10.8597 72.4502 10.6336 72.4502 10.6336C72.479 10.6073 72.489 10.5579 72.4728 10.523C72.4566 10.488 72.4201 10.4812 72.3916 10.5071Z" fill="#383A42"/>
<path fill-rule="evenodd" clip-rule="evenodd" d="M71.1381 12.6138L73.314 13.1859C73.314 13.1859 71.376 15.1129 71.1381 12.6138Z" fill="white"/>
<path fill-rule="evenodd" clip-rule="evenodd" d="M20.8008 47.9446L22.2956 48.9411L23.2921 52.1798C23.2921 52.1798 25.3973 56.2133 26.0326 51.6816V51.3079C26.0326 51.3079 27.1761 52.4539 26.78 50.9342C26.78 50.9342 25.4446 48.7468 24.4132 48.1937L22.7939 46.3252L20.8008 47.9446Z" fill="#B28B67"/>
<path fill-rule="evenodd" clip-rule="evenodd" d="M13.5878 23.4145C13.5878 23.4145 15.4314 13.2748 21.9288 13.6983C21.9288 13.6983 28.349 19.4085 28.2792 12.8662L33.2694 13.4492C33.2694 13.4492 36.8719 15.3276 42.4874 21.4214L43.9822 22.6671L48.21 15.3575L50.7013 16.678L46.9643 30.3056L36.9989 25.3229V39.6506L19.8162 41.103L20.8052 25.3229L17.0682 36.5339L23.9717 47.7449L22.0509 48.9906L10.8398 39.0252L13.5878 23.4145Z" fill="#59358C"/>
</svg>
