<svg width="100" height="100" viewBox="0 0 100 100" fill="none" xmlns="http://www.w3.org/2000/svg">
<path fill-rule="evenodd" clip-rule="evenodd" d="M55.4324 91.9461L56.5554 97.8209L59.069 98.3112L58.9361 91.3451L55.4324 91.9461Z" fill="#B28B67"/>
<path fill-rule="evenodd" clip-rule="evenodd" d="M44.0845 91.995L43.553 97.5052L41.0394 97.9956L40.8798 91.6411L44.0845 91.995Z" fill="#B28B67"/>
<path fill-rule="evenodd" clip-rule="evenodd" d="M42.6748 63.294L40.8934 93.8118H44.0982L49.9112 71.8556L55.429 94.8243L59.0656 94.816L57.6168 62.3779L42.6748 63.294Z" fill="#59358C"/>
<path fill-rule="evenodd" clip-rule="evenodd" d="M56.1055 97.339C55.9184 97.8296 55.8243 98.1971 55.8229 98.4413C55.8212 98.7382 55.8681 99.1717 55.9639 99.742L65.2513 99.7948C65.4972 98.9984 65.3603 98.5668 64.8407 98.5001C64.321 98.4336 63.8895 98.3737 63.5458 98.3205L59.24 96.3716C59.1572 96.334 59.0595 96.3709 59.022 96.4536C59.0215 96.4551 59.0209 96.4564 59.0202 96.4579L58.7389 97.1295C58.2563 97.3513 57.8644 97.4614 57.5636 97.4597C57.3191 97.4583 56.9819 97.3576 56.5521 97.1576C56.3872 97.0809 56.1913 97.1524 56.1146 97.3173C56.1113 97.3243 56.1083 97.3316 56.1055 97.339Z" fill="#A7AAB4"/>
<path fill-rule="evenodd" clip-rule="evenodd" d="M44.0164 97.0333C44.2034 97.5239 44.2976 97.8914 44.2989 98.1356C44.3006 98.4325 44.2537 98.866 44.158 99.4363L34.8706 99.4891C34.6246 98.6927 34.7615 98.2611 35.2811 98.1945C35.8008 98.1279 36.2324 98.068 36.5761 98.0149L40.8818 96.0659C40.9646 96.0284 41.0623 96.0652 41.0998 96.148C41.1003 96.1495 41.101 96.1508 41.1016 96.1522L41.3829 96.8238C41.8655 97.0457 42.2574 97.1558 42.5582 97.1541C42.8028 97.1527 43.1399 97.0519 43.5697 96.8519C43.7346 96.7752 43.9305 96.8467 44.0072 97.0116C44.0105 97.0187 44.0135 97.0259 44.0164 97.0333Z" fill="#A7AAB4"/>
<path fill-rule="evenodd" clip-rule="evenodd" d="M63.168 34.2661L66.9749 24.3351C67.5166 23.5615 68.3423 23.1389 68.9882 22.0942C71.3223 18.3201 67.8082 17.6922 67.0021 18.4376C65.9592 19.402 66.0936 20.7363 66.0936 20.7363C66.0936 20.7363 65.9208 19.4981 65.1996 19.2515C64.7189 19.087 64.4632 20.7211 64.4328 24.1535L59.9782 32.7635L63.168 34.2661Z" fill="#B28B67"/>
<path fill-rule="evenodd" clip-rule="evenodd" d="M33.1953 35.2739L28.3517 26.8136C27.6965 26.1335 26.8151 25.8442 26.0149 24.9124C23.1234 21.5463 26.4975 20.3806 27.4095 20.9919C28.5894 21.7827 28.6637 23.1217 28.6637 23.1217C28.6637 23.1217 28.6423 21.8717 29.3164 21.5162C29.7658 21.2791 30.272 22.8536 30.8348 26.2397L35.4613 33.5545L33.1953 35.2739Z" fill="#B28B67"/>
<path fill-rule="evenodd" clip-rule="evenodd" d="M51.8884 29.3201C53.7715 31.4949 53.0013 36.5549 51.1714 37.6284L51.716 42.6194L46.2204 43.8552L46.952 37.7368C45.1844 36.8158 44.4618 33.9544 44.4879 32.2071C44.5647 27.0825 50.0052 27.1453 51.8884 29.3201Z" fill="#B28B67"/>
<path fill-rule="evenodd" clip-rule="evenodd" d="M44.558 33.4372C43.9823 32.2215 43.7248 29.7987 44.0976 28.6175C44.6387 26.9022 45.5274 25.3441 47.3184 25.0192C48.8705 24.7375 49.2186 24.5084 50.3516 24.9272C51.5855 25.3835 52.3191 26.458 52.8332 27.6845C53.6105 29.5395 53.3552 31.8132 52.9586 33.3916C52.7043 33.4312 53.1712 29.8932 49.8001 28.1333C49.7407 28.1023 49.6788 28.1972 49.6162 28.236C48.1672 29.1356 45.2815 28.3989 44.9849 30.9635L44.558 33.4372Z" fill="#383A42"/>
<path d="M48.8053 26.2147C50.0743 26.2147 51.1031 25.1859 51.1031 23.9169C51.1031 22.6479 50.0743 21.6191 48.8053 21.6191C47.5363 21.6191 46.5075 22.6479 46.5075 23.9169C46.5075 25.1859 47.5363 26.2147 48.8053 26.2147Z" fill="#383A42"/>
<path fill-rule="evenodd" clip-rule="evenodd" d="M53.4345 38.974L51.3485 39.3098L49.4433 41.4734L46.6859 40.0604L44.7793 40.3674L39.1493 36.329L31.7964 27.1224L29.0526 28.0544L34.4422 38.0591L42.4954 46.877L41.9267 63.8686H58.308L56.6929 45.0658L64.1828 32.3346L67.2626 24.3779H63.9511L59.6757 32.0273L53.4345 38.974Z" fill="#8CA9D9"/>
<path d="M47.1961 32.0293C47.4005 32.0293 47.5661 31.8713 47.5661 31.6763C47.5661 31.4813 47.4005 31.3232 47.1961 31.3232C46.9918 31.3232 46.8262 31.4813 46.8262 31.6763C46.8262 31.8713 46.9918 32.0293 47.1961 32.0293Z" fill="#383A42"/>
<path fill-rule="evenodd" clip-rule="evenodd" d="M45.9472 30.978L47.7122 30.6253C47.7122 30.6253 46.3613 30.2213 45.9472 30.978Z" fill="#383A42"/>
<path fill-rule="evenodd" clip-rule="evenodd" d="M51.4404 30.8443L49.6753 30.4915C49.6753 30.4915 51.0262 30.0875 51.4404 30.8443Z" fill="#383A42"/>
<path d="M50.0769 31.9922C50.2812 31.9922 50.4468 31.8342 50.4468 31.6392C50.4468 31.4442 50.2812 31.2861 50.0769 31.2861C49.8725 31.2861 49.7069 31.4442 49.7069 31.6392C49.7069 31.8342 49.8725 31.9922 50.0769 31.9922Z" fill="#383A42"/>
<path fill-rule="evenodd" clip-rule="evenodd" d="M48.4485 32.3449C48.4485 32.3449 48.2335 32.7588 48.1806 33.1461C48.1517 33.358 48.1736 33.5617 48.2853 33.6991C48.3973 33.8359 48.6029 33.9176 48.9595 33.8586C49.0048 33.8508 49.0355 33.8084 49.0281 33.7631C49.0206 33.7179 48.9777 33.6869 48.9325 33.6947C48.6608 33.7394 48.4995 33.6985 48.4142 33.5937C48.3287 33.4888 48.3232 33.331 48.3454 33.1688C48.3947 32.8073 48.596 32.4216 48.596 32.4216C48.6172 32.3808 48.6013 32.3305 48.5606 32.309C48.5199 32.2881 48.4696 32.3041 48.4485 32.3449Z" fill="#383A42"/>
<path fill-rule="evenodd" clip-rule="evenodd" d="M47.9004 35.2128L49.6654 34.8027C49.6654 34.8027 49.2065 37.0019 47.9004 35.2128Z" fill="white"/>
<path fill-rule="evenodd" clip-rule="evenodd" d="M44.9419 31.4848C44.9419 31.4848 43.3873 31.8564 44.5667 33.443L44.9419 31.4848Z" fill="#B28B67"/>
<path fill-rule="evenodd" clip-rule="evenodd" d="M52.5665 31.4848C52.5665 31.4848 54.1212 31.8564 52.9418 33.443L52.5665 31.4848Z" fill="#B28B67"/>
<path d="M29.0569 16.4392C31.3919 16.4392 33.2848 14.5463 33.2848 12.2113C33.2848 9.8763 31.3919 7.9834 29.0569 7.9834C26.7219 7.9834 24.829 9.8763 24.829 12.2113C24.829 14.5463 26.7219 16.4392 29.0569 16.4392Z" fill="#8CA9D9"/>
<path d="M40.8977 8.45582C43.2327 8.45582 45.1256 6.56292 45.1256 4.22791C45.1256 1.8929 43.2327 0 40.8977 0C38.5627 0 36.6698 1.8929 36.6698 4.22791C36.6698 6.56292 38.5627 8.45582 40.8977 8.45582Z" fill="#8CA9D9"/>
<path d="M54.1303 8.45582C56.4653 8.45582 58.3582 6.56292 58.3582 4.22791C58.3582 1.8929 56.4653 0 54.1303 0C51.7953 0 49.9023 1.8929 49.9023 4.22791C49.9023 6.56292 51.7953 8.45582 54.1303 8.45582Z" fill="#8CA9D9"/>
<path d="M66.1174 16.2068C68.4525 16.2068 70.3454 14.3139 70.3454 11.9789C70.3454 9.64388 68.4525 7.75098 66.1174 7.75098C63.7824 7.75098 61.8895 9.64388 61.8895 11.9789C61.8895 14.3139 63.7824 16.2068 66.1174 16.2068Z" fill="#8CA9D9"/>
<path fill-rule="evenodd" clip-rule="evenodd" d="M29.078 9.32617L29.7581 11.4202H31.9596L30.1786 12.713L30.859 14.8071L29.078 13.5143L27.2971 14.8071L27.9772 12.713L26.1962 11.4202H28.3976L29.078 9.32617Z" fill="white"/>
<path fill-rule="evenodd" clip-rule="evenodd" d="M40.9189 1.34277L41.5989 3.43683H43.8004L42.0194 4.72962L42.6998 6.82371L40.9189 5.53089L39.1379 6.82371L39.818 4.72962L38.037 3.43683H40.2385L40.9189 1.34277Z" fill="white"/>
<path fill-rule="evenodd" clip-rule="evenodd" d="M54.1515 1.34277L54.8315 3.43683H57.033L55.252 4.72962L55.9324 6.82371L54.1515 5.53089L52.3705 6.82371L53.0506 4.72962L51.2696 3.43683H53.4711L54.1515 1.34277Z" fill="white"/>
<path fill-rule="evenodd" clip-rule="evenodd" d="M66.1387 9.08203L66.8187 11.1761H69.0202L67.2392 12.4689L67.9196 14.563L66.1387 13.2701L64.3577 14.563L65.0378 12.4689L63.2568 11.1761H65.4582L66.1387 9.08203Z" fill="white"/>
</svg>
