<svg width="100" height="100" viewBox="0 0 100 100" fill="none" xmlns="http://www.w3.org/2000/svg">
<path fill-rule="evenodd" clip-rule="evenodd" d="M23.3774 28.5524C23.1878 29.7314 22.8005 30.6266 22.2177 30.7773C21.595 30.9376 20.2696 30.545 18.9223 29.7322L19.7686 35.7198H14.7706L16.4912 27.7009C15.5311 26.5747 14.8824 25.1947 14.9902 23.6482C15.3035 19.1921 21.5071 20.1724 22.7127 22.4215C23.1199 23.1801 23.3734 24.3324 23.4712 25.542C23.579 25.6532 23.7127 25.8067 23.8025 25.9638C23.9602 26.2376 23.9862 26.523 23.5171 26.6189C23.5171 27.0524 23.4991 27.4805 23.4612 27.8879L22.1039 27.6805C22.1039 27.6805 22.1478 28.6446 23.3774 28.5524Z" fill="#B28B67"/>
<path fill-rule="evenodd" clip-rule="evenodd" d="M78.8055 25.7141C78.7915 25.5298 78.7795 25.3422 78.7715 25.1526C78.7556 24.7927 78.7536 24.4249 78.7636 24.0562C78.2127 23.977 78.2326 23.6758 78.3983 23.3877C78.524 23.1688 78.7336 22.9574 78.8414 22.8568C78.9711 21.6141 79.2466 20.453 79.6698 19.665C81.041 17.1095 88.0889 15.9955 88.4442 21.059C88.568 22.8161 87.8294 24.3843 86.7396 25.6642L88.6937 34.7757H83.0171L83.9771 27.9722C82.4462 28.8957 80.9412 29.3418 80.2346 29.1596C79.526 28.9773 79.0749 27.8348 78.8753 26.3652C78.8773 26.3718 78.8793 26.3754 78.8793 26.3754C80.1288 26.4797 80.1727 25.5053 80.1727 25.5053L78.8055 25.7141Z" fill="#B28B67"/>
<path fill-rule="evenodd" clip-rule="evenodd" d="M94.6743 62.7305H80.3263L78.4462 85.7604H99.8047L94.6743 62.7305Z" fill="#A7AAB4"/>
<path fill-rule="evenodd" clip-rule="evenodd" d="M63.9561 58.7838L63.9026 58.7526C62.3674 57.8923 60.7168 59.9546 60.7185 61.2532C60.7239 65.1841 63.1184 82.8608 63.3057 84.032C63.4931 85.203 65.8351 85.4671 65.9521 83.9904C66.138 81.641 66.4832 73.5073 66.1378 69.7425C65.995 68.1885 65.8414 66.7083 65.6902 65.388C67.5722 68.7869 70.4834 73.6542 74.4238 79.9893L76.5626 79.012C74.8831 73.4782 73.5057 69.5714 72.4309 67.2917C71.7668 65.8833 71.1177 64.548 70.5248 63.3608L70.424 63.1587C69.4192 61.1533 68.5875 59.5965 68.1382 58.8683C66.9957 57.0161 65.0069 57.6624 63.9561 58.7838Z" fill="#B28B67"/>
<path fill-rule="evenodd" clip-rule="evenodd" d="M76.817 77.9094C77.2741 78.2859 77.5717 78.5933 77.7094 78.8319C77.8768 79.1219 78.0728 79.573 78.2976 80.1852C77.9611 80.3795 74.9371 82.1254 69.2257 85.4229C68.5399 84.7796 68.433 84.2802 68.9051 83.9249C69.3772 83.5695 69.7667 83.2698 70.0738 83.0258L73.205 78.7117C73.2652 78.6287 73.3813 78.6103 73.4643 78.6705C73.4658 78.6715 73.4672 78.6725 73.4687 78.6735L74.1193 79.1746C74.7161 79.1225 75.1615 79.0117 75.4555 78.8419C75.6943 78.704 75.9685 78.4171 76.2778 77.9811C76.3966 77.8139 76.6286 77.7745 76.7959 77.8933C76.8031 77.8983 76.8101 77.9037 76.817 77.9094Z" fill="#A7AAB4"/>
<path fill-rule="evenodd" clip-rule="evenodd" d="M66.412 83.2426C66.6198 83.7971 66.7237 84.2122 66.7237 84.4877C66.7237 84.8225 66.6679 85.3112 66.5563 85.9538H56.081C55.8087 85.0538 55.9659 84.5681 56.5524 84.4962C57.1389 84.4245 57.6261 84.3597 58.014 84.3019L62.8829 82.1314C62.9765 82.0896 63.0864 82.1317 63.128 82.2254C63.1288 82.227 63.1295 82.2285 63.1302 82.2302L63.4432 82.9894C63.9861 83.2428 64.4273 83.3694 64.7667 83.3694C65.0425 83.3694 65.4234 83.258 65.9093 83.0351C66.0959 82.9497 66.3164 83.0316 66.4018 83.2181C66.4055 83.226 66.4089 83.2342 66.412 83.2426Z" fill="#A7AAB4"/>
<path fill-rule="evenodd" clip-rule="evenodd" d="M66.2622 67.4973C68.6534 72.027 71.4379 76.9699 71.6894 77.6615L76.4299 75.9408L71.4359 64.1116C75.4239 64.4657 80.7273 64.9458 83.0247 64.9458C88.5916 64.9458 90.895 61.4348 91.0826 54.9306L80.1724 54.5518C77.9269 54.7921 60.5956 58.7635 60.5956 58.7635C60.5956 58.7635 61.7093 78.1408 61.7113 79.2272L66.7533 79.231C66.374 73.9709 66.2562 70.0681 66.2622 67.4973Z" fill="#8CA9D9"/>
<path fill-rule="evenodd" clip-rule="evenodd" d="M35.1222 46.1413L43.1333 48.2548C44.9975 48.0453 46.6283 48.056 48.0258 48.2872C48.3885 48.4253 48.9056 48.791 47.7644 49.1423C46.6233 49.4937 45.4388 49.9147 45.4349 50.3526C45.4311 50.7906 46.2793 50.9782 46.1712 51.6096C46.0993 52.0307 44.7904 51.5621 42.2448 50.2038L35.0869 50.0776L35.1222 46.1413Z" fill="#B28B67"/>
<path fill-rule="evenodd" clip-rule="evenodd" d="M80.8712 49.2832L73.4077 54.314C71.6062 54.8373 70.1048 55.4741 68.9036 56.2247C68.6218 56.4917 68.2851 57.028 69.4736 56.9137C70.6621 56.7993 71.9174 56.7326 72.0894 57.1354C72.2613 57.5383 71.5504 58.0376 71.8929 58.5789C72.1212 58.94 73.1493 58.0042 74.9771 55.7717L81.5365 52.9035L80.8712 49.2832Z" fill="#B28B67"/>
<path fill-rule="evenodd" clip-rule="evenodd" d="M24.3301 62.0234C25.9714 62.0234 27.3017 63.3538 27.3017 64.995V82.0818C27.3017 83.723 25.9714 85.0534 24.3301 85.0534H2.97161C1.33035 85.0534 0 83.723 0 82.0818V64.995C0 63.3538 1.33035 62.0234 2.97161 62.0234H24.3301ZM21.3585 67.2237H5.94323C5.53296 67.2237 5.20033 67.5564 5.20033 67.9666V79.1102C5.20033 79.5204 5.53296 79.8531 5.94323 79.8531H21.3585C21.7687 79.8531 22.1014 79.5204 22.1014 79.1102V67.9666C22.1014 67.5564 21.7687 67.2237 21.3585 67.2237Z" fill="#A7AAB4"/>
<path fill-rule="evenodd" clip-rule="evenodd" d="M7.51386 48.2306L10.1462 47.7041C8.65255 55.2141 8.31694 60.4291 8.03928 60.8572C7.41431 61.82 7.99749 63.5849 8.21275 64.5143C6.86159 64.8287 7.39444 62.795 5.68465 63.2198C4.12399 63.6072 2.80069 64.6019 1.34553 63.2604C1.16668 63.0955 1.03556 62.5801 1.64567 62.3157C3.16546 61.6571 5.4107 60.4237 5.77472 59.9447C6.27135 59.2919 7.51386 48.2306 7.51386 48.2306Z" fill="#B28B67"/>
<path fill-rule="evenodd" clip-rule="evenodd" d="M88.024 19.7562C86.7293 14.4367 79.4032 17.7394 77.9935 16.8417C77.6855 18.7733 78.6792 20.3306 82.1733 20.0297C82.9441 20.4605 83.4928 21.2683 84.1529 22.3278C84.3136 22.2646 84.4887 22.2301 84.672 22.2301C85.4561 22.2301 86.0916 22.8656 86.0916 23.6497C86.0916 24.0474 85.9279 24.4073 85.6641 24.6649C85.9923 25.1284 86.3604 25.613 86.7825 26.1129C88.355 25.1694 89.5252 22.4212 88.0289 19.7663L88.024 19.7562Z" fill="#383A42"/>
<path fill-rule="evenodd" clip-rule="evenodd" d="M45.7104 84.1194C42.0486 79.6481 39.5711 76.3331 38.2775 74.1746C36.0627 70.4788 34.25 67.1904 33.678 65.9341C32.3138 62.9386 36.8184 61.5358 37.8379 62.933C39.3809 65.0479 42.6762 71.7024 47.7239 82.897L45.7104 84.1194Z" fill="#B28B67"/>
<path fill-rule="evenodd" clip-rule="evenodd" d="M20.0731 79.3845C21.4006 77.448 26.2291 70.9334 28.8592 68.238C29.6148 67.4634 30.3524 66.7199 31.0498 66.0272C33.1229 63.9679 37.2511 67.4292 35.1819 69.3047C30.0285 73.9758 22.5095 80.2815 21.8814 80.8438C21.0009 81.6318 19.2389 80.6015 20.0731 79.3845Z" fill="#B28B67"/>
<path fill-rule="evenodd" clip-rule="evenodd" d="M20.3755 78.508C19.9184 78.8845 19.6208 79.192 19.4831 79.4305C19.3156 79.7205 19.1197 80.1716 18.8949 80.7839C19.2314 80.9781 22.2554 82.724 27.9668 86.0215C28.6526 85.3782 28.7595 84.8789 28.2874 84.5235C27.8153 84.1682 27.4258 83.8685 27.1187 83.6245L23.9875 79.3103C23.9273 79.2273 23.8111 79.2089 23.7282 79.2691C23.7267 79.2702 23.7253 79.2711 23.7238 79.2722L23.0732 79.7732C22.4764 79.7212 22.031 79.6103 21.737 79.4406C21.4981 79.3027 21.224 79.0157 20.9146 78.5798C20.7959 78.4125 20.5638 78.3731 20.3966 78.4919C20.3894 78.497 20.3824 78.5024 20.3755 78.508Z" fill="#383A42"/>
<path fill-rule="evenodd" clip-rule="evenodd" d="M44.135 83.4506C43.9272 84.0052 43.8233 84.4203 43.8233 84.6957C43.8233 85.0305 43.8791 85.5192 43.9907 86.1618H54.466C54.7383 85.2618 54.5811 84.7761 53.9946 84.7042C53.4081 84.6325 52.9209 84.5677 52.5329 84.51L47.6641 82.3394C47.5705 82.2976 47.4606 82.3398 47.419 82.4334C47.4182 82.435 47.4175 82.4365 47.4168 82.4382L47.1038 83.1974C46.5609 83.4508 46.1196 83.5774 45.7803 83.5774C45.5045 83.5774 45.1236 83.466 44.6377 83.2431C44.4511 83.1577 44.2306 83.2396 44.1452 83.4261C44.1415 83.434 44.1381 83.4422 44.135 83.4506Z" fill="#383A42"/>
<path fill-rule="evenodd" clip-rule="evenodd" d="M34.4102 70.4714C31.2765 74.7427 27.9451 79.2413 27.9451 79.2413L22.2006 75.8391L29.2325 66.0353C29.2325 66.0353 19.498 64.9776 17.5739 64.6385C12.0906 63.6716 10.4916 60.7209 11.4369 54.2832H21.5399C22.8773 54.6692 29.9751 58.5543 39.8114 62.9439C39.8373 62.9562 39.4801 63.4816 38.8713 64.3363C41.7455 69.1437 46.3803 78.4333 46.997 79.2692L41.3763 81.5979L34.4102 70.4714Z" fill="#59358C"/>
<path fill-rule="evenodd" clip-rule="evenodd" d="M18.234 31.969C18.234 31.969 13.5424 32.4591 10.7319 33.8479C7.05703 35.6637 6.4485 49.2881 6.4485 49.2881L5.39557 60.2753L8.0213 60.8705L10.6602 48.2354L11.7132 42.9706V48.2354L11.1672 56.3935L25.647 57.29L22.9732 43.9676L25.7958 49.8285L40.9035 50.1763L40.6475 47.658L29.2547 44.7273C29.2547 44.7273 26.5228 36.7313 24.7138 34.2912C22.9394 31.8983 18.234 31.969 18.234 31.969Z" fill="#8CA9D9"/>
<path fill-rule="evenodd" clip-rule="evenodd" d="M83.8532 30.0213C83.8532 30.0213 87.3232 29.2758 89.6407 31.3869C91.301 32.8991 87.5349 50.3398 87.5349 50.3398L76.0091 55.6044L73.8468 53.4986L84.3761 47.1809L85.429 37.7045L84.3761 47.1809L78.3098 50.8208L78.4458 42.9691C78.4458 42.9691 78.3551 34.8799 80.1644 32.4398C81.9386 30.0469 83.8532 30.0213 83.8532 30.0213Z" fill="#59358C"/>
<path fill-rule="evenodd" clip-rule="evenodd" d="M19.8757 19.8351C19.2171 19.7272 17.4436 19.6529 17.1165 19.6529C16.9077 19.6529 16.6811 19.7008 16.5572 19.5088C16.4558 19.3516 16.5006 19.0844 16.4629 18.9035C15.9778 16.5858 10.8911 17.118 9.77041 17.8384C6.77074 19.767 9.07911 24.7931 8.47068 26.1001C7.92784 27.2655 6.06674 30.393 6.32286 32.3299C6.49131 33.6042 7.83414 36.0608 8.96958 35.9159C10.5144 35.7187 11.5486 33.6017 11.9253 32.2147C12.5025 30.0886 10.8167 27.2453 10.9235 25.7728C11.0824 23.5831 12.7251 22.5538 13.3098 21.964C13.7808 21.4886 14.5945 19.7841 16.2183 19.7279C13.6248 20.198 12.6064 23.4051 13.3375 25.7594C13.7321 27.0302 16.1039 28.5157 17.0262 27.8477C17.6104 27.4244 17.2556 26.8688 17.0262 26.502C16.5866 25.7996 16.4361 24.8974 17.2496 24.4083C17.9513 23.9866 18.689 24.9882 18.703 24.9871C18.8958 24.9719 20.562 24.0295 21.7101 22.6542C22.8427 22.7215 23.0147 21.9746 22.7442 21.3639C22.4737 20.7531 20.7856 19.9846 19.8757 19.8351Z" fill="#383A42"/>
<path fill-rule="evenodd" clip-rule="evenodd" d="M31.327 21.3616L31.2312 21.342C29.7122 21.035 28.7282 19.5526 29.0356 18.0336L30.1474 12.5292C30.4548 11.0103 31.9378 10.0265 33.4568 10.3334L44.4647 12.5588C45.9837 12.8658 46.9677 14.3482 46.6604 15.8672L45.5486 21.3716C45.2412 22.8905 43.7582 23.8743 42.2392 23.5674L34.1035 21.9227L31.0575 23.2169L31.327 21.3616ZM41.1973 16.9115C40.818 16.8346 40.4468 17.0807 40.3709 17.4604C40.2931 17.84 40.5406 18.2107 40.9198 18.2875C41.2991 18.3642 41.6703 18.1183 41.7462 17.7386C41.824 17.3588 41.5765 16.9881 41.1973 16.9115ZM37.9877 16.2624C37.6065 16.1855 37.2372 16.4316 37.1594 16.8113C37.0835 17.1911 37.329 17.5618 37.7083 17.6384C38.0875 17.7153 38.4588 17.4692 38.5366 17.0895C38.6125 16.7097 38.367 16.3392 37.9877 16.2624ZM34.7761 15.6133C34.3969 15.5366 34.0256 15.7825 33.9498 16.1622C33.8719 16.542 34.1174 16.9127 34.4987 16.9893C34.8779 17.0662 35.2472 16.8203 35.325 16.4404C35.4009 16.0608 35.1554 15.6901 34.7761 15.6133Z" fill="#59358C"/>
<path fill-rule="evenodd" clip-rule="evenodd" d="M21.46 24.0123L22.7761 23.7493C22.7761 23.7493 21.7688 23.448 21.46 24.0123Z" fill="#383A42"/>
<path d="M22.395 25.0617C22.5473 25.0617 22.6708 24.9438 22.6708 24.7984C22.6708 24.653 22.5473 24.5352 22.395 24.5352C22.2426 24.5352 22.1191 24.653 22.1191 24.7984C22.1191 24.9438 22.2426 25.0617 22.395 25.0617Z" fill="#383A42"/>
<path fill-rule="evenodd" clip-rule="evenodd" d="M80.8105 21.3756L79.4944 21.1126C79.4944 21.1126 80.5017 20.8113 80.8105 21.3756Z" fill="#383A42"/>
<path d="M79.8755 22.425C79.7232 22.425 79.5997 22.3071 79.5997 22.1617C79.5997 22.0163 79.7232 21.8984 79.8755 21.8984C80.0279 21.8984 80.1514 22.0163 80.1514 22.1617C80.1514 22.3071 80.0279 22.425 79.8755 22.425Z" fill="#383A42"/>
<path fill-rule="evenodd" clip-rule="evenodd" d="M89.9129 31.9814C89.9129 31.9814 90.9096 33.0142 92.3448 41.9152C92.9586 45.7205 92.7857 54.9291 92.7857 54.9291L78.296 55.1921L78.571 54.1945L87.521 50.3384L89.9129 31.9814Z" fill="#59358C"/>
</svg>
