<svg width="100" height="101" viewBox="0 0 100 101" fill="none" xmlns="http://www.w3.org/2000/svg">
<path fill-rule="evenodd" clip-rule="evenodd" d="M33.3008 75.2244L37.758 80.799L41.0172 77.6057L35.9751 73.416L33.3008 75.2244Z" fill="#B28B67"/>
<path fill-rule="evenodd" clip-rule="evenodd" d="M68.5941 21.7945L66.0905 8.60109C66.1588 7.41064 66.7652 6.40862 66.7655 4.85789C66.767 -0.745074 62.5759 0.913277 62.205 2.24896C61.725 3.97695 62.755 5.32082 62.755 5.32082C62.755 5.32082 61.7475 4.10567 60.8093 4.31957C60.1838 4.46204 60.9939 6.38678 63.2397 10.0935L64.1706 22.298L68.5941 21.7945Z" fill="#B28B67"/>
<path fill-rule="evenodd" clip-rule="evenodd" d="M35.6494 29.4059L35.7668 17.0975C35.4867 15.9385 34.7107 15.0612 34.433 13.5355C33.4289 8.02324 37.849 8.90489 38.453 10.1526C39.2345 11.7668 38.4615 13.2733 38.4615 13.2733C38.4615 13.2733 39.2353 11.8975 40.1966 11.9401C40.8376 11.9683 40.385 14.007 38.8387 18.0557L39.2152 28.9774L35.6494 29.4059Z" fill="#B28B67"/>
<path fill-rule="evenodd" clip-rule="evenodd" d="M46.5067 83.5665C46.1974 82.9177 45.9223 82.4773 45.6817 82.2452C45.3893 81.963 44.9155 81.6 44.2602 81.156L35.434 90.3055C35.9907 91.3016 36.5473 91.5736 37.1043 91.1219C37.6611 90.67 38.1281 90.2991 38.5055 90.0089L44.5037 87.5852C44.619 87.5387 44.6748 87.4071 44.6281 87.2919C44.6273 87.2898 44.6266 87.2879 44.6258 87.2859L44.2263 86.3728C44.4625 85.6852 44.7237 85.1931 45.0096 84.8967C45.2419 84.6558 45.6602 84.417 46.2643 84.1804C46.4961 84.0894 46.6104 83.8278 46.5195 83.5961C46.5156 83.5861 46.5113 83.5763 46.5067 83.5665Z" fill="#A7AAB4"/>
<path fill-rule="evenodd" clip-rule="evenodd" d="M56.1316 23.8121C58.5093 26.558 57.5368 32.9469 55.2264 34.3023L55.9139 40.604L48.9751 42.1644L49.8989 34.4391C47.667 33.2762 46.7546 29.6634 46.7876 27.4573C46.8846 20.9868 53.7539 21.0661 56.1316 23.8121Z" fill="#B28B67"/>
<path fill-rule="evenodd" clip-rule="evenodd" d="M46.6881 67.2269L49.5654 83.5338L41.3508 75.2944L35.083 80.6205L54.8118 100.739L63.4107 80.1069L58.6839 91.4483L72.4418 96.5636L68.0722 62.4297L46.6881 67.2269Z" fill="#8CA9D9"/>
<path fill-rule="evenodd" clip-rule="evenodd" d="M46.9114 29.0196C46.1845 27.4846 45.8594 24.4255 46.3301 22.9341C47.0133 20.7683 49.0994 19.0018 52.9237 19.2003C54.9125 19.3035 54.9364 19.9624 54.9364 19.9624C54.9364 19.9624 56.01 18.7517 57.557 21.0122C58.1314 21.8515 58.3502 25.6516 57.5181 28.962C57.1895 29.0132 57.6484 23.7664 53.6971 23.187C51.7048 22.8951 47.825 22.6581 47.4504 25.8962L46.9114 29.0196Z" fill="#383A42"/>
<path fill-rule="evenodd" clip-rule="evenodd" d="M58.0866 36.011L47.1584 37.7704L41.5606 33.295L39.4411 18.1123L35.6273 17.9586L34.1064 34.8558L41.6666 47.3224L45.1298 56.862L46.2887 68.5528L70.2832 66.56L67.0417 55.8054L65.3084 43.2713L71.6577 27.628L67.2246 11.1484L63.27 12.5331L64.1719 27.2556L58.0866 36.011Z" fill="#59358C"/>
<path fill-rule="evenodd" clip-rule="evenodd" d="M37.5823 74.1451C37.2576 73.464 36.9689 73.0017 36.7163 72.758C36.4093 72.4619 35.912 72.0808 35.2241 71.6147L25.9588 81.2193C26.5432 82.265 27.1274 82.5506 27.7121 82.0764C28.2966 81.602 28.7869 81.2127 29.1831 80.908L35.4796 78.3637C35.6008 78.3149 35.6593 78.1768 35.6103 78.0558C35.6094 78.0537 35.6087 78.0517 35.6079 78.0495L35.1885 77.091C35.4364 76.3692 35.7106 75.8526 36.0107 75.5415C36.2547 75.2886 36.6938 75.0379 37.3278 74.7895C37.5713 74.694 37.6912 74.4194 37.5958 74.1761C37.5917 74.1657 37.5872 74.1554 37.5823 74.1451Z" fill="#A7AAB4"/>
<path d="M50.223 27.2372C50.481 27.2372 50.6901 27.0377 50.6901 26.7915C50.6901 26.5453 50.481 26.3457 50.223 26.3457C49.965 26.3457 49.7559 26.5453 49.7559 26.7915C49.7559 27.0377 49.965 27.2372 50.223 27.2372Z" fill="#383A42"/>
<path fill-rule="evenodd" clip-rule="evenodd" d="M48.6572 25.9017L50.8858 25.4564C50.8858 25.4564 49.1801 24.9462 48.6572 25.9017Z" fill="#383A42"/>
<path fill-rule="evenodd" clip-rule="evenodd" d="M55.5908 25.7435L53.3622 25.2982C53.3622 25.2982 55.0679 24.788 55.5908 25.7435Z" fill="#383A42"/>
<path d="M53.8607 27.1884C54.1187 27.1884 54.3278 26.9889 54.3278 26.7427C54.3278 26.4965 54.1187 26.2969 53.8607 26.2969C53.6027 26.2969 53.3936 26.4965 53.3936 26.7427C53.3936 26.9889 53.6027 27.1884 53.8607 27.1884Z" fill="#383A42"/>
<path fill-rule="evenodd" clip-rule="evenodd" d="M51.8398 27.6482C51.8398 27.6482 51.5701 28.1673 51.5038 28.653C51.4681 28.9142 51.4937 29.1658 51.6313 29.3344C51.7692 29.503 52.023 29.6005 52.4621 29.5281C52.5074 29.5204 52.5381 29.4779 52.5307 29.4326C52.5231 29.3873 52.4804 29.3567 52.4351 29.3643C52.0808 29.4229 51.8714 29.3657 51.7602 29.2292C51.6488 29.0926 51.6397 28.8871 51.6686 28.676C51.7313 28.2161 51.9873 27.7249 51.9873 27.7249C52.0085 27.6845 51.9926 27.6343 51.9519 27.6127C51.9112 27.5918 51.8609 27.6078 51.8398 27.6482Z" fill="#383A42"/>
<path fill-rule="evenodd" clip-rule="evenodd" d="M51.123 31.258L53.3516 30.7402C53.3516 30.7402 52.7721 33.517 51.123 31.258Z" fill="white"/>
<path fill-rule="evenodd" clip-rule="evenodd" d="M47.3781 26.5517C47.3781 26.5517 45.4151 27.0208 46.9043 29.0241L47.3781 26.5517Z" fill="#B28B67"/>
<path fill-rule="evenodd" clip-rule="evenodd" d="M56.9921 26.5517C56.9921 26.5517 58.955 27.0208 57.4659 29.0241L56.9921 26.5517Z" fill="#B28B67"/>
</svg>
