<svg width="102" height="102" viewBox="0 0 102 102" fill="none" xmlns="http://www.w3.org/2000/svg">
<path fill-rule="evenodd" clip-rule="evenodd" d="M65.0956 11.0255C65.0956 10.7207 64.8481 10.4736 64.5437 10.4736H63.44C63.1356 10.4736 62.8882 10.7207 62.8882 11.0255V13.075C62.8882 13.3797 63.1356 13.6268 63.44 13.6268H64.5437C64.8481 13.6268 65.0956 13.3797 65.0956 13.075V11.0255Z" fill="#383A42"/>
<path fill-rule="evenodd" clip-rule="evenodd" d="M36.122 59.3131L36.1468 64.8306C35.7655 66.6091 35.6192 68.1835 35.7079 69.554C35.8061 69.9174 36.1091 70.4516 36.5578 69.3843C37.0066 68.3171 37.5266 67.2147 37.9496 67.2531C38.3726 67.2915 38.4719 68.1279 39.0915 68.0843C39.5046 68.0554 39.1785 66.7475 38.1129 64.1609L38.6794 57.2426L36.122 59.3131Z" fill="#B28B67"/>
<path fill-rule="evenodd" clip-rule="evenodd" d="M65.3001 31.5679L64.0395 21.1852C64.094 20.2349 64.9685 18.8063 64.5783 18.1971C63.025 15.7729 62.0634 17.3475 62.0634 17.3475C62.0634 17.3475 61.6656 15.4879 61.5464 15.2126C61.2555 14.5393 60.8546 15.0941 60.8348 15.3705C60.7297 16.8448 60.8348 18.4148 60.8348 18.4148C60.8348 18.4148 60.7396 18.9658 60.674 19.307C60.5768 19.8098 60.959 20.5062 61.7637 22.3766L61.9522 31.5677L65.3001 31.5679Z" fill="#B28B67"/>
<path fill-rule="evenodd" clip-rule="evenodd" d="M53.0594 26.8921C55.027 29.1646 53.6485 34.7171 52.1197 35.1258L52.8793 40.7882L47.1371 42.0795L47.9431 35.1259C46.4435 34.9927 45.2995 31.7344 45.3268 29.9087C45.4071 24.5541 51.0917 24.6197 53.0594 26.8921Z" fill="#B28B67"/>
<path d="M48.2176 30.1892C48.4236 30.1892 48.5905 30.0299 48.5905 29.8334C48.5905 29.6369 48.4236 29.4775 48.2176 29.4775C48.0117 29.4775 47.8447 29.6369 47.8447 29.8334C47.8447 30.0299 48.0117 30.1892 48.2176 30.1892Z" fill="#383A42"/>
<path fill-rule="evenodd" clip-rule="evenodd" d="M46.9487 29.1194L48.7278 28.7639C48.7278 28.7639 47.3661 28.3566 46.9487 29.1194Z" fill="#383A42"/>
<path fill-rule="evenodd" clip-rule="evenodd" d="M52.4785 28.9954L50.6995 28.6399C50.6995 28.6399 52.0611 28.2326 52.4785 28.9954Z" fill="#383A42"/>
<path d="M51.1078 30.1512C51.3137 30.1512 51.4806 29.9919 51.4806 29.7953C51.4806 29.5988 51.3137 29.4395 51.1078 29.4395C50.9018 29.4395 50.7349 29.5988 50.7349 29.7953C50.7349 29.9919 50.9018 30.1512 51.1078 30.1512Z" fill="#383A42"/>
<path fill-rule="evenodd" clip-rule="evenodd" d="M49.4948 30.5195C49.4948 30.5195 49.2798 30.9339 49.2269 31.321C49.1985 31.5285 49.2187 31.7282 49.3281 31.8628C49.4377 31.9968 49.6397 32.0741 49.9887 32.0163C50.0234 32.0107 50.0469 31.9779 50.0412 31.9434C50.0355 31.9084 50.0027 31.885 49.968 31.8911C49.6839 31.9378 49.516 31.8917 49.4268 31.7821C49.3374 31.6725 49.3299 31.5079 49.353 31.3382C49.4032 30.9712 49.6077 30.5785 49.6077 30.5785C49.6239 30.5473 49.6118 30.509 49.5807 30.4928C49.5494 30.4761 49.511 30.4884 49.4948 30.5195Z" fill="#383A42"/>
<path fill-rule="evenodd" clip-rule="evenodd" d="M48.6675 33.4116L51.1581 32.9893C51.1581 32.9893 50.5824 35.5029 48.6675 33.4116Z" fill="white"/>
<path fill-rule="evenodd" clip-rule="evenodd" d="M55.1647 93.107L56.4087 99.6148L59.1932 100.158L59.0459 92.4412L55.1647 93.107Z" fill="#B28B67"/>
<path fill-rule="evenodd" clip-rule="evenodd" d="M42.6169 93.167L42.0281 99.271L39.2436 99.8142L39.0668 92.7751L42.6169 93.167Z" fill="#B28B67"/>
<path fill-rule="evenodd" clip-rule="evenodd" d="M41.0313 61.3761L37.061 94.0369L43.8867 93.9922L49.8489 74.4203L53.2014 94.5648L61.4996 94.2137L57.5832 60.3613L41.0313 61.3761Z" fill="#59358C"/>
<path fill-rule="evenodd" clip-rule="evenodd" d="M46.7908 37.2504C46.7908 37.2504 41.809 37.5412 39.6746 40.0969C38.0286 42.0677 36.1165 51.4828 36.1165 51.4828L35.3413 63.4535L38.5599 63.4334L40.3862 52.906L41.7563 46.9991L39.7804 62.6187L59.0011 61.2948L57.5708 45.1322L66.0091 33.7532L64.7325 22.3662L61.7044 22.7269L61.3695 31.6273C61.3695 31.6273 56.8432 36.6395 54.4135 37.5767C52.0407 38.4919 46.7908 37.2504 46.7908 37.2504Z" fill="#8CA9D9"/>
<path fill-rule="evenodd" clip-rule="evenodd" d="M55.9155 99.0923C55.7083 99.6358 55.604 100.043 55.6025 100.313C55.6006 100.642 55.6526 101.123 55.7586 101.754L66.0468 101.813C66.3192 100.931 66.1676 100.452 65.5919 100.379C65.0163 100.305 64.5382 100.239 64.1575 100.18L59.3878 98.0207C59.2961 97.9791 59.1879 98.0199 59.1463 98.1116C59.1458 98.1133 59.145 98.1147 59.1443 98.1164L58.8327 98.8603C58.2981 99.1061 57.864 99.228 57.5307 99.2261C57.2599 99.2246 56.8864 99.113 56.4103 98.8914C56.2276 98.8064 56.0106 98.8857 55.9257 99.0683C55.922 99.0761 55.9187 99.0841 55.9155 99.0923Z" fill="#A7AAB4"/>
<path fill-rule="evenodd" clip-rule="evenodd" d="M42.5147 98.7437C42.7219 99.2872 42.8262 99.6943 42.8277 99.9648C42.8296 100.294 42.7776 100.774 42.6715 101.406L32.3834 101.464C32.111 100.582 32.2626 100.104 32.8382 100.03C33.4139 99.9563 33.892 99.8899 34.2727 99.831L39.0424 97.6721C39.1341 97.6305 39.2423 97.6713 39.2839 97.763C39.2844 97.7646 39.2851 97.7661 39.2859 97.7677L39.5975 98.5116C40.1321 98.7574 40.5662 98.8794 40.8994 98.8775C41.1703 98.8759 41.5438 98.7644 42.0199 98.5428C42.2026 98.4578 42.4195 98.537 42.5045 98.7197C42.5082 98.7275 42.5115 98.7355 42.5147 98.7437Z" fill="#A7AAB4"/>
<path fill-rule="evenodd" clip-rule="evenodd" d="M63.8367 2.17871C65.7486 2.17871 67.3008 3.73987 67.3008 5.66152C67.3008 6.79902 66.9938 7.66859 66.0805 8.4474C64.8976 9.45762 65.2394 11.7068 65.2394 11.7068H62.717C62.717 11.7068 62.9368 9.53683 61.6649 8.4474C60.9217 7.811 60.3726 6.7198 60.3726 5.66152C60.3726 3.73987 61.9248 2.17871 63.8367 2.17871Z" fill="#FFC600"/>
<path fill-rule="evenodd" clip-rule="evenodd" d="M50.9404 23.6978C50.9404 23.6978 51.322 23.382 51.9034 23.3228C54.4568 23.0624 56.436 24.9814 56.9135 26.8996C57.2577 28.2831 56.6607 29.5599 57.2886 31.744C57.9049 33.8874 57.2477 35.8908 57.2477 35.8908C57.2477 35.8908 51.9913 35.2034 52.1088 35.1163C53.7805 33.8754 53.3758 32.5845 53.6008 31.5582C54.0582 29.4693 53.9002 28.3007 53.0756 27.9081C51.1302 26.982 49.5973 26.0252 49.5973 26.0252C49.5973 26.0252 45.7923 26.998 45.5678 29.8931C45.5146 30.5789 45.8806 32.397 46.3119 33.4644C46.802 34.6765 47.9322 35.1163 47.9322 35.1163C45.2337 34.8178 42.2666 35.9932 42.2666 35.9932C42.2666 35.9932 43.0238 32.7198 42.7629 30.6372C42.2807 26.7844 45.5578 22.4223 49.9501 22.9452C50.5957 23.022 50.9404 23.6978 50.9404 23.6978Z" fill="#383A42"/>
<path fill-rule="evenodd" clip-rule="evenodd" d="M63.83 6.29723C63.7436 6.30079 63.6564 6.30079 63.571 6.29901C63.546 5.90828 63.5015 5.55491 63.4312 5.26831C63.3725 5.02711 63.2942 4.83132 63.198 4.69425C63.1224 4.58744 63.0352 4.51266 62.9381 4.4726C62.7129 4.38004 62.4067 4.4646 62.0285 4.86335C61.757 5.14995 61.6689 5.40986 61.6983 5.6306C61.741 5.95725 62.0516 6.22159 62.5082 6.37824C62.7512 6.46191 63.0351 6.51619 63.3315 6.54022C63.4214 8.48678 63.0761 11.1979 63.0761 11.1979C63.0681 11.2673 63.117 11.3314 63.1864 11.3403C63.2568 11.3492 63.32 11.2994 63.3289 11.23C63.3289 11.23 63.668 8.52596 63.5843 6.55269C63.668 6.55447 63.7516 6.55358 63.8353 6.55091C63.8745 7.61364 64.1077 9.12853 64.6559 11.246C64.6738 11.3136 64.7432 11.3546 64.8117 11.3368C64.8794 11.319 64.9203 11.2495 64.9025 11.1819C64.356 9.07422 64.1237 7.57624 64.0863 6.53309C64.3053 6.51173 64.518 6.47169 64.7156 6.41383C65.2016 6.26964 65.587 6.00799 65.7383 5.63416C65.8504 5.35735 65.7757 5.01913 65.5932 4.74232C65.4134 4.46907 65.1313 4.26079 64.8509 4.22697C64.5082 4.18513 64.1388 4.38449 63.9519 5.07874C63.8727 5.3778 63.8255 5.77654 63.83 6.29723ZM63.3173 6.28476C63.2924 5.92339 63.2497 5.59676 63.1838 5.32885C63.142 5.15707 63.0903 5.01022 63.0263 4.89808C62.9737 4.8064 62.9141 4.73785 62.8402 4.70759C62.7735 4.68 62.696 4.68799 62.6061 4.72893C62.4904 4.78055 62.3605 4.88291 62.2136 5.03867C62.0125 5.25051 61.9288 5.43477 61.9502 5.59765C61.9653 5.71158 62.0329 5.80948 62.1326 5.89492C62.2492 5.99372 62.4068 6.07384 62.591 6.13704C62.8064 6.21091 63.0556 6.26073 63.3173 6.28476ZM64.081 6.27854C64.2768 6.25807 64.4664 6.22158 64.6426 6.16907C65.0458 6.0498 65.3769 5.84864 65.5024 5.5389C65.5852 5.33418 65.5158 5.08675 65.3805 4.88204C65.2434 4.67377 65.0342 4.50556 64.8197 4.47886C64.5678 4.4486 64.3346 4.63373 64.1985 5.14463C64.1228 5.42589 64.0792 5.79791 64.081 6.27854Z" fill="white"/>
<path d="M63.9926 13.8397C64.341 13.8397 64.6234 13.5573 64.6234 13.2089C64.6234 12.8605 64.341 12.5781 63.9926 12.5781C63.6442 12.5781 63.3618 12.8605 63.3618 13.2089C63.3618 13.5573 63.6442 13.8397 63.9926 13.8397Z" fill="#383A42"/>
<path fill-rule="evenodd" clip-rule="evenodd" d="M65.2925 12.0841C65.2925 11.9575 65.1902 11.8555 65.0638 11.8555H62.8938C62.7674 11.8555 62.665 11.9575 62.665 12.0841C62.665 12.2107 62.7674 12.3127 62.8938 12.3127H65.0638C65.1902 12.3127 65.2925 12.2107 65.2925 12.0841Z" fill="#A7AAB4"/>
<path fill-rule="evenodd" clip-rule="evenodd" d="M65.2676 12.6075C65.2676 12.481 65.1653 12.3789 65.0389 12.3789H62.8689C62.7425 12.3789 62.6401 12.481 62.6401 12.6075C62.6401 12.7341 62.7425 12.8362 62.8689 12.8362H65.0389C65.1653 12.8362 65.2676 12.7341 65.2676 12.6075Z" fill="#A7AAB4"/>
<path fill-rule="evenodd" clip-rule="evenodd" d="M65.2925 13.131C65.2925 13.0044 65.1902 12.9023 65.0638 12.9023H62.8938C62.7674 12.9023 62.665 13.0044 62.665 13.131C62.665 13.2576 62.7674 13.3596 62.8938 13.3596H65.0638C65.1902 13.3596 65.2925 13.2576 65.2925 13.131Z" fill="#A7AAB4"/>
<path fill-rule="evenodd" clip-rule="evenodd" d="M63.864 0.00456607C63.7106 0.00456607 63.5869 0.12846 63.5869 0.28173V1.30388C63.5869 1.45715 63.7106 1.58105 63.864 1.58105C64.0174 1.58105 64.1411 1.45715 64.1411 1.30388V0.28173C64.1411 0.12846 64.0174 0.00456607 63.864 0.00456607Z" fill="#FFC600"/>
<path fill-rule="evenodd" clip-rule="evenodd" d="M69.5706 5.88184C69.5706 5.72125 69.4409 5.5918 69.2806 5.5918H68.2841C68.1239 5.5918 67.9941 5.72125 67.9941 5.88184C67.9941 6.04242 68.1239 6.17188 68.2841 6.17188H69.2806C69.4409 6.17188 69.5706 6.04242 69.5706 5.88184Z" fill="#FFC600"/>
<path fill-rule="evenodd" clip-rule="evenodd" d="M59.5828 5.72475C59.5828 5.56841 59.4563 5.44238 59.3003 5.44238H58.2889C58.1329 5.44238 58.0063 5.56841 58.0063 5.72475C58.0063 5.88108 58.1329 6.00711 58.2889 6.00711H59.3003C59.4563 6.00711 59.5828 5.88108 59.5828 5.72475Z" fill="#FFC600"/>
<path fill-rule="evenodd" clip-rule="evenodd" d="M68.2807 1.5312C68.1739 1.42444 68.0014 1.42485 67.8949 1.53134L67.1661 2.26016C67.0596 2.36665 67.0592 2.53918 67.166 2.64594C67.2727 2.75269 67.4453 2.75227 67.5517 2.64578L68.2806 1.91697C68.387 1.81048 68.3875 1.63795 68.2807 1.5312Z" fill="#FFC600"/>
<path fill-rule="evenodd" clip-rule="evenodd" d="M59.2362 1.66034C59.3452 1.55129 59.5211 1.55137 59.6302 1.6605L60.3507 2.38101C60.4595 2.48976 60.4599 2.66603 60.3509 2.77508C60.2418 2.88413 60.0656 2.88368 59.9568 2.77492L59.2363 2.05442C59.1272 1.94528 59.1271 1.76939 59.2362 1.66034Z" fill="#FFC600"/>
</svg>
