<svg width="100" height="100" viewBox="0 0 100 100" fill="none" xmlns="http://www.w3.org/2000/svg">
<path fill-rule="evenodd" clip-rule="evenodd" d="M45.9721 15.3388C45.7026 16.8847 45.1817 18.0461 44.4032 18.2467C43.5489 18.4667 42.7525 18.599 40.9002 17.4831L41.0419 25.0326H34.1797L36.5409 14.023C35.2256 12.4769 34.3333 10.5819 34.483 8.45872C34.9122 2.34056 43.4272 3.68646 45.0839 6.77428C45.5888 7.7152 45.9222 9.09664 46.0799 10.5779C46.1857 10.6713 46.6627 11.109 46.9262 11.5661C47.2196 12.0757 47.2455 12.6092 46.1877 12.7164C46.1837 13.2228 46.1617 13.7224 46.1178 14.2018L44.515 13.8517C44.515 13.8517 44.5649 15.4463 45.9721 15.3388Z" fill="#B28B67"/>
<path fill-rule="evenodd" clip-rule="evenodd" d="M59.8657 42.8909L66.6656 43.9645C68.951 43.8833 71.2579 43.86 72.9349 44.271C73.3633 44.4725 73.8463 45.3784 72.3917 45.4303C70.9431 45.482 67.8606 45.3887 65.7707 45.4303L57.0413 45.2438L59.8657 42.8909Z" fill="#B28B67"/>
<path fill-rule="evenodd" clip-rule="evenodd" d="M73.6555 37.1298L74.0587 37.5442L74.1526 36.9733C74.1985 36.8949 74.2144 36.8011 74.1965 36.7074C74.1945 36.6961 74.1925 36.6847 74.1885 36.6735L72.1146 29.6342C72.0548 29.4308 71.8412 29.3142 71.6376 29.3741C71.434 29.434 71.3182 29.6478 71.3781 29.8514L73.452 36.8907C73.4839 37.0003 73.5597 37.0847 73.6555 37.1298Z" fill="#191847"/>
<path fill-rule="evenodd" clip-rule="evenodd" d="M57.5662 35.2825L67.5683 33.3081C69.5183 32.0727 69.61 31.7556 71.0611 31.3474C71.4202 31.2467 73.1504 30.929 73.4124 31.2154C73.6024 31.4231 74.1922 32.362 74.197 32.5864C74.2069 33.0309 73.4633 34.7651 72.9908 35.3305C72.7645 35.601 72.0933 35.7634 71.1621 35.8869C70.6413 35.9561 69.9548 35.9181 67.6347 35.9432L58.6998 38.2863L57.5662 35.2825Z" fill="#B28B67"/>
<path fill-rule="evenodd" clip-rule="evenodd" d="M22.6521 69.0053L14.8437 99.3945L16.4185 99.7997L24.3726 68.8416L40.9954 67.2568L32.7379 99.3945L34.3128 99.7997L42.7159 67.0931L56.2988 65.7997V62.2209H43.9674L45.5622 56.0125L43.9874 55.6081L42.2888 62.2209H31.2469L25.7778 19.2754H7.9834L18.7199 69.3786L22.6521 69.0053Z" fill="#E4E4E4"/>
<path fill-rule="evenodd" clip-rule="evenodd" d="M65.8158 57.4164L65.8981 57.3684C68.2615 56.0442 69.3876 59.116 69.3848 61.1149C69.3768 67.1656 66.5885 94.4081 66.3001 96.2108C66.0119 98.0133 62.9235 98.4896 62.7437 96.2166C62.4575 92.6001 61.9258 80.0802 62.4578 74.2853C62.6774 71.893 62.9138 69.6145 63.1465 67.5822C60.2496 72.8141 55.7681 80.3063 49.7031 90.0578L46.4109 88.5535C48.9961 80.0353 51.1162 74.0217 52.7706 70.5125C53.7929 68.3446 54.7921 66.2891 55.7044 64.4618L55.8599 64.1507C57.4065 61.0638 58.6867 58.6675 59.3783 57.5465C61.137 54.6954 64.1983 55.6903 65.8158 57.4164Z" fill="#B28B67"/>
<path fill-rule="evenodd" clip-rule="evenodd" d="M46.0077 86.8745C45.3039 87.4539 44.846 87.9273 44.6342 88.2942C44.3763 88.7409 44.0745 89.4351 43.7287 90.3777C44.2466 90.6767 48.9014 93.3642 57.6929 98.4399C58.7485 97.4496 58.913 96.681 58.1863 96.1341C57.4596 95.5871 56.8601 95.1257 56.3875 94.7499L51.5675 88.1094C51.4749 87.9817 51.296 87.953 51.1681 88.0459C51.1663 88.0474 51.164 88.0491 51.1617 88.0507L50.1603 88.8218C49.2417 88.7416 48.5559 88.5709 48.1036 88.3097C47.7359 88.0974 47.3138 87.656 46.8376 86.9849L46.8374 86.9848C46.6545 86.7274 46.2976 86.6669 46.0402 86.8497C46.0291 86.8575 46.0184 86.8658 46.0077 86.8745Z" fill="#A7AAB4"/>
<path fill-rule="evenodd" clip-rule="evenodd" d="M47.6041 49.0134H81.7917V92.1405H83.4165V49.0134H86.8756V99.1066H88.5023V49.0134H92.0812V45.4346H45.5562V49.0134H45.9794V99.7992H47.6041V49.0134ZM42.5203 47.6248H40.8936V92.8332H42.5203V47.6248Z" fill="#8CA9D9"/>
<path fill-rule="evenodd" clip-rule="evenodd" d="M62.0234 94.7656C61.7035 95.6192 61.5437 96.2582 61.5437 96.6821C61.5437 97.1976 61.6295 97.9497 61.8013 98.9389H77.9257C78.3448 97.5538 78.1029 96.8059 77.2001 96.6953C76.2973 96.5849 75.5474 96.4852 74.9502 96.3962L67.4558 93.0551C67.3117 92.9908 67.1424 93.0557 67.0781 93.1998C67.0773 93.2024 67.0761 93.2046 67.075 93.2072L66.5933 94.3759C65.7576 94.7659 65.0784 94.9608 64.5561 94.9608C64.1315 94.9608 63.5452 94.7893 62.797 94.4462C62.51 94.3147 62.1706 94.4408 62.0391 94.7278C62.0334 94.7401 62.0283 94.7527 62.0234 94.7656Z" fill="#A7AAB4"/>
<path fill-rule="evenodd" clip-rule="evenodd" d="M31.2813 12.0583C30.0866 9.38526 31.3322 4.34114 33.0706 2.21645C35.6144 -0.892533 39.9198 0.0643184 42.0177 0.427105C44.321 0.825626 46.5026 3.22505 46.8328 4.10671C47.5995 6.15421 46.9783 7.30403 46.4663 7.62508C45.5229 8.21657 43.0085 7.59277 42.6638 7.51444C42.0494 7.37521 41.2009 6.79345 40.8484 6.66994C40.8267 7.14651 40.6912 7.67139 40.4962 8.09993C40.3372 8.44956 39.7097 9.53964 39.5159 9.75119C39.1971 10.0997 38.9598 10.5314 38.7955 10.9862C38.3009 10.3415 37.4266 9.91672 36.6522 10.1148C35.7965 10.3335 35.1939 11.4908 35.7411 12.3227C36.059 12.8059 36.6325 12.9923 37.1099 13.1995C36.7377 13.5869 36.6473 14.1587 36.4235 14.6404C36.3128 14.8779 33.4329 16.8723 31.2813 12.0583Z" fill="#383A42"/>
<path fill-rule="evenodd" clip-rule="evenodd" d="M54.3601 65.5725C48.0547 66.1553 39.945 66.9058 36.4998 66.9058C27.929 66.9058 24.3841 61.5006 24.0967 51.4893H41.0747C44.5318 51.8593 70.6216 56.5623 70.6216 56.5623C70.6216 56.5623 70.5397 58.4781 70.416 61.3789C70.0467 70.0775 69.3102 87.6343 69.3082 88.8878L61.5477 88.8938C62.1685 80.2531 62.5697 73.9497 62.7533 69.9797C58.9789 77.1713 54.3522 85.3709 53.947 86.4786L46.6536 83.83L54.3601 65.5725Z" fill="#8CA9D9"/>
<path fill-rule="evenodd" clip-rule="evenodd" d="M34.8164 19.2784C36.0012 17.1232 41.0985 18.7693 41.9735 21.0676C44.3597 27.33 49.1313 56.856 49.1313 56.856H22.29C22.29 56.856 31.5356 25.2431 34.8164 19.2784Z" fill="#59358C"/>
<path fill-rule="evenodd" clip-rule="evenodd" d="M39.917 34.1994L47.0748 43.7759L67.6324 35.9477L66.5901 33.1456L50.9321 36.2136L41.985 24.6455L39.917 34.1994Z" fill="#59358C"/>
<path fill-rule="evenodd" clip-rule="evenodd" d="M44.0076 33.46L50.1693 40.7465L65.1015 43.6433L64.9061 45.4333H45.9097L38.208 35.8173L44.0076 33.46Z" fill="#59358C"/>
<path fill-rule="evenodd" clip-rule="evenodd" d="M42.6514 8.54251L44.8881 8.09554C44.8881 8.09554 43.1762 7.58348 42.6514 8.54251Z" fill="#383A42"/>
<path d="M44.4141 9.87918C44.6731 9.87918 44.883 9.67891 44.883 9.43181C44.883 9.18471 44.6731 8.98438 44.4141 8.98438C44.1552 8.98438 43.9453 9.18471 43.9453 9.43181C43.9453 9.67891 44.1552 9.87918 44.4141 9.87918Z" fill="#383A42"/>
</svg>
