<svg width="100" height="100" viewBox="0 0 100 100" fill="none" xmlns="http://www.w3.org/2000/svg">
<path fill-rule="evenodd" clip-rule="evenodd" d="M27.8954 51.0788L27.9198 56.523C27.5436 58.2779 27.3992 59.8314 27.4867 61.1836C27.5836 61.5423 27.8826 62.0693 28.3253 61.0162C28.7682 59.9631 29.2813 58.8755 29.6986 58.9133C30.116 58.9512 30.2141 59.7765 30.8254 59.7335C31.233 59.7049 30.9112 58.4145 29.8598 55.8622L30.4188 49.0358L27.8954 51.0788Z" fill="#B28B67"/>
<path fill-rule="evenodd" clip-rule="evenodd" d="M44.8452 20.0022C46.7867 22.2444 45.4265 27.7232 43.9179 28.1264L44.6675 33.7136L39.0015 34.9878L39.7969 28.1266C38.3172 27.9951 37.5632 24.7095 37.5901 22.9083C37.6695 17.6245 42.9037 17.7599 44.8452 20.0022Z" fill="#B28B67"/>
<path d="M40.0496 23.2647C40.2528 23.2647 40.4175 23.1076 40.4175 22.9136C40.4175 22.7197 40.2528 22.5625 40.0496 22.5625C39.8464 22.5625 39.6816 22.7197 39.6816 22.9136C39.6816 23.1076 39.8464 23.2647 40.0496 23.2647Z" fill="#383A42"/>
<path fill-rule="evenodd" clip-rule="evenodd" d="M38.9399 22.1132L40.6953 21.7624C40.6953 21.7624 39.3518 21.3606 38.9399 22.1132Z" fill="#383A42"/>
<path fill-rule="evenodd" clip-rule="evenodd" d="M44.2661 22.0898L42.5107 21.739C42.5107 21.739 43.8542 21.3371 44.2661 22.0898Z" fill="#383A42"/>
<path d="M42.9133 23.2296C43.1166 23.2296 43.2813 23.0724 43.2813 22.8785C43.2813 22.6846 43.1166 22.5273 42.9133 22.5273C42.7101 22.5273 42.5454 22.6846 42.5454 22.8785C42.5454 23.0724 42.7101 23.2296 42.9133 23.2296Z" fill="#383A42"/>
<path fill-rule="evenodd" clip-rule="evenodd" d="M41.2968 23.5742C41.2968 23.5742 41.0831 23.9858 41.0305 24.371C41.0018 24.5812 41.0235 24.7832 41.1344 24.9193C41.2456 25.0554 41.4497 25.1361 41.8037 25.0779C41.8479 25.0702 41.878 25.0285 41.8707 24.9841C41.8634 24.9402 41.8215 24.91 41.7772 24.9171C41.5062 24.9621 41.3456 24.9209 41.2605 24.8167C41.1752 24.7118 41.1696 24.5549 41.1917 24.393C41.2408 24.0335 41.4411 23.6493 41.4411 23.6493C41.4618 23.6093 41.4463 23.5599 41.4065 23.5396C41.3667 23.5187 41.3175 23.5341 41.2968 23.5742Z" fill="#383A42"/>
<path fill-rule="evenodd" clip-rule="evenodd" d="M41.4248 26.4412L42.9692 26.0244C42.9692 26.0244 42.2027 26.984 41.4248 26.4412Z" fill="white"/>
<path fill-rule="evenodd" clip-rule="evenodd" d="M47.4996 91.409L48.7271 97.8303L51.4746 98.3663L51.3292 90.7521L47.4996 91.409Z" fill="#B28B67"/>
<path fill-rule="evenodd" clip-rule="evenodd" d="M35.0984 91.4616L34.5174 97.4844L31.7699 98.0204L31.5955 91.0748L35.0984 91.4616Z" fill="#B28B67"/>
<path fill-rule="evenodd" clip-rule="evenodd" d="M32.7585 53.1107L31.6099 94.5583L35.329 94.5678L41.459 65.9815L45.9592 77.1271L47.9281 93.6684L51.5765 93.979L53.1454 77.1271L49.0905 52.1094L32.7585 53.1107Z" fill="#59358C"/>
<path fill-rule="evenodd" clip-rule="evenodd" d="M38.1849 30.251C38.1849 30.251 34.0054 31.0632 31.8994 33.5849C30.2752 35.5296 29.0907 43.4152 29.0907 43.4152L27.123 55.1591L30.2989 55.1392L32.6585 46.2239L34.708 37.7979L33.3451 47.6282L31.5936 57.4584H50.1558C50.1558 57.4584 47.9134 46.623 48.0555 39.9147C48.0668 39.3852 49.0512 45.4446 49.0512 45.4446L48.9169 50.2956L50.1558 57.4584C50.1558 57.4584 52.3968 45.7297 52.2357 44.7699C52.1255 44.1137 50.4266 34.0382 50.2538 33.6299C49.0214 30.7134 44.5385 30.7763 44.5385 30.7763L38.1849 30.251Z" fill="#8CA9D9"/>
<path fill-rule="evenodd" clip-rule="evenodd" d="M48.2372 97.3139C48.0328 97.8502 47.9299 98.2519 47.9283 98.5188C47.9265 98.8433 47.9778 99.3172 48.0824 99.9405L58.2338 99.9982C58.5027 99.1277 58.3531 98.656 57.7851 98.5831C57.2171 98.5104 56.7453 98.4449 56.3697 98.3868L51.6634 96.2565C51.5729 96.2155 51.4661 96.2558 51.4251 96.3462C51.4245 96.3479 51.4238 96.3493 51.4231 96.3509L51.1156 97.085C50.5881 97.3275 50.1598 97.4478 49.831 97.4459C49.5637 97.4444 49.1952 97.3343 48.7254 97.1157C48.5452 97.0318 48.3311 97.11 48.2472 97.2902C48.2436 97.2979 48.2403 97.3058 48.2372 97.3139Z" fill="#A7AAB4"/>
<path fill-rule="evenodd" clip-rule="evenodd" d="M35.0152 96.9682C35.2197 97.5045 35.3226 97.9062 35.3241 98.1731C35.3259 98.4976 35.2746 98.9715 35.17 99.5948L25.0186 99.6525C24.7498 98.782 24.8994 98.3103 25.4674 98.2374C26.0353 98.1647 26.5071 98.0992 26.8828 98.0411L31.5891 95.9108C31.6795 95.8698 31.7863 95.9101 31.8273 96.0005C31.8279 96.0022 31.8286 96.0036 31.8293 96.0052L32.1368 96.7393C32.6643 96.9818 33.0926 97.1021 33.4215 97.1002C33.6887 97.0987 34.0573 96.9886 34.5271 96.7699C34.7073 96.6861 34.9214 96.7643 35.0052 96.9445C35.0088 96.9522 35.0121 96.9601 35.0152 96.9682Z" fill="#A7AAB4"/>
<path fill-rule="evenodd" clip-rule="evenodd" d="M42.7609 16.8584C42.7609 16.8584 43.1375 16.5468 43.7111 16.4883C46.2306 16.2315 48.1835 18.1249 48.6547 20.0177C48.9943 21.3828 48.3802 25.1995 48.7654 27.4083C49.1226 29.4581 49.1548 32.1732 49.1422 32.1631C47.4241 30.7697 44.2658 30.7499 44.2658 30.7499C44.2658 30.7499 43.8828 28.1482 43.9138 28.1252C45.5633 26.9007 45.164 25.627 45.3859 24.6144C45.8372 22.5532 45.6814 21.4001 44.8677 21.0127C42.9482 20.0989 41.4357 19.1549 41.4357 19.1549C41.4357 19.1549 40.7485 20.6677 37.8115 22.7335C37.7637 22.7672 37.7354 25.2916 38.2328 26.3498C38.4119 26.7308 38.8709 27.6553 39.7926 28.1252C40.2616 28.3642 39.5338 30.3585 39.5338 30.3585C36.8501 30.5292 34.7139 31.4757 34.7139 31.4757C34.7139 31.4757 35.4102 25.8227 35.424 23.7519C35.458 18.7729 39.2705 16.3548 41.7436 16.3791C42.3852 16.3853 42.7609 16.8584 42.7609 16.8584Z" fill="#383A42"/>
<path fill-rule="evenodd" clip-rule="evenodd" d="M37.9246 22.7394C37.9246 22.7394 36.2314 23.4077 37.9448 24.7222L37.9246 22.7394Z" fill="#B28B67"/>
<path fill-rule="evenodd" clip-rule="evenodd" d="M45.5157 22.4821C45.5157 22.4821 47.2637 23.3227 45.304 24.4536L45.5157 22.4821Z" fill="#B28B67"/>
<path d="M48.7627 17.4366C49.1505 17.4366 49.4649 17.1222 49.4649 16.7344C49.4649 16.3466 49.1505 16.0322 48.7627 16.0322C48.3749 16.0322 48.0605 16.3466 48.0605 16.7344C48.0605 17.1222 48.3749 17.4366 48.7627 17.4366Z" fill="#8CA9D9"/>
<path d="M50.1683 16.1061C50.594 16.1061 50.9391 15.761 50.9391 15.3353C50.9391 14.9096 50.594 14.5645 50.1683 14.5645C49.7426 14.5645 49.3975 14.9096 49.3975 15.3353C49.3975 15.761 49.7426 16.1061 50.1683 16.1061Z" fill="#8CA9D9"/>
<path d="M51.8805 14.8831C52.407 14.8831 52.8338 14.4563 52.8338 13.9298C52.8338 13.4034 52.407 12.9766 51.8805 12.9766C51.354 12.9766 50.9272 13.4034 50.9272 13.9298C50.9272 14.4563 51.354 14.8831 51.8805 14.8831Z" fill="#8CA9D9"/>
<path fill-rule="evenodd" clip-rule="evenodd" d="M52.5594 7.14911C52.5594 7.14911 53.4203 2.30724 57.4222 4.11221C57.4222 4.11221 61.672 -0.36687 65.4893 5.16189C65.4893 5.16189 68.6636 4.83012 68.6922 7.82048C68.6922 7.82048 69.8203 13.0421 64.8356 11.9501C64.8356 11.9501 62.4318 15.7461 59.5545 12.816C59.5545 12.816 55.1075 15.8908 53.2606 11.6131C53.2606 11.6131 49.9626 10.3201 52.5594 7.14911Z" fill="#8CA9D9"/>
<path d="M59.6015 9.9997H60.7964V11.1144H59.6015V9.9997ZM58.1836 6.77157C58.1836 6.44162 58.2371 6.14735 58.3352 5.87982C58.4333 5.6123 58.576 5.38044 58.7632 5.19318C58.9416 5.00591 59.1734 4.85431 59.441 4.7473C59.6996 4.64921 59.9938 4.5957 60.3238 4.5957C60.6002 4.5957 60.8499 4.63137 61.0907 4.71163C61.3226 4.80081 61.5277 4.90782 61.706 5.05941C61.8754 5.21101 62.0181 5.40719 62.1162 5.63013C62.2143 5.85307 62.2678 6.11168 62.2678 6.39704C62.2678 6.60214 62.25 6.78049 62.2054 6.93209C62.1608 7.08368 62.0984 7.21744 62.027 7.32445C61.9468 7.44038 61.8665 7.53847 61.7684 7.61873C61.6703 7.70791 61.5812 7.79708 61.4831 7.87734C61.3671 7.97543 61.269 8.06461 61.171 8.15378C61.0729 8.24296 60.9926 8.34105 60.9213 8.44806C60.8499 8.56399 60.7964 8.68883 60.7607 8.84043C60.7162 8.99203 60.6983 9.17037 60.6983 9.38439H59.7352C59.7352 9.12579 59.7531 8.90285 59.7798 8.71558C59.8066 8.53723 59.8422 8.37672 59.9047 8.24296C59.9671 8.10919 60.0384 7.98435 60.1276 7.87734C60.2079 7.77925 60.3149 7.67224 60.4308 7.57414C60.5289 7.49389 60.6181 7.41363 60.7072 7.34229C60.7875 7.27095 60.8678 7.19069 60.9391 7.10152C61.0015 7.02126 61.055 6.92317 61.0996 6.81616C61.1353 6.70915 61.1531 6.5843 61.1531 6.43271C61.1531 6.25436 61.1264 6.10276 61.0639 5.969C61.0015 5.84415 60.9213 5.74606 60.8321 5.6658C60.7429 5.58554 60.6448 5.53204 60.5467 5.49637C60.4486 5.4607 60.3595 5.44286 60.2792 5.44286C59.9136 5.44286 59.6371 5.55879 59.4677 5.79956C59.2894 6.04034 59.2002 6.37028 59.2002 6.77157H58.1836Z" fill="#383A42"/>
</svg>
