<svg width="101" height="100" viewBox="0 0 101 100" fill="none" xmlns="http://www.w3.org/2000/svg">
<path fill-rule="evenodd" clip-rule="evenodd" d="M65.9943 78.6697L82.1699 89.7691L82.7847 78.6697H83.3675C92.5571 78.6697 100.016 71.2096 100.016 62.0206V28.7224C100.016 19.5335 92.5571 12.0732 83.3675 12.0732H16.7708C7.58315 12.0732 0.12207 19.5335 0.12207 28.7224V62.0206C0.12207 71.2096 7.58315 78.6697 16.7708 78.6697H65.9943ZM30.645 41.2092C32.9424 41.2092 34.8067 43.0743 34.8067 45.3715C34.8067 47.6687 32.9424 49.5337 30.645 49.5337C28.3476 49.5337 26.4833 47.6687 26.4833 45.3715C26.4833 43.0743 28.3476 41.2092 30.645 41.2092ZM69.4933 41.2092C71.7907 41.2092 73.655 43.0743 73.655 45.3715C73.655 47.6687 71.7907 49.5337 69.4933 49.5337C67.1959 49.5337 65.3316 47.6687 65.3316 45.3715C65.3316 43.0743 67.1959 41.2092 69.4933 41.2092ZM50.0701 41.2092C52.3675 41.2092 54.2318 43.0743 54.2318 45.3715C54.2318 47.6687 52.3675 49.5337 50.0701 49.5337C47.7727 49.5337 45.9065 47.6687 45.9065 45.3715C45.9065 43.0743 47.7727 41.2092 50.0701 41.2092Z" fill="#59358C"/>
</svg>
