<?xml version="1.0" encoding="UTF-8"?>
<svg width="299px" height="135px" viewBox="0 0 299 135" version="1.1" xmlns="http://www.w3.org/2000/svg" xmlns:xlink="http://www.w3.org/1999/xlink">
    <title>Group</title>
    <g id="Symbols" stroke="none" stroke-width="1" fill="none" fill-rule="evenodd">
        <g id="Group" transform="translate(-0.000000, 0.000000)">
            <rect id="Rectangle" fill="#50535E" x="3.50830476e-14" y="4" width="5.49587012" height="130.068926"></rect>
            <rect id="Rectangle-Copy-7" fill="#50535E" x="293.151239" y="4" width="5.49587012" height="130.068926"></rect>
            <path d="M3.97903932e-13,4.97379915e-14 C49.7681572,4.23948715 99.5363144,6.35923072 149.304472,6.35923072 C199.072629,6.35923072 248.840786,4.23948715 298.608943,4.97379915e-14 L298.608943,55.3038908 C249.179983,61.1802868 199.527603,64.1184848 149.651805,64.1184848 C99.7760075,64.1184848 49.8920724,61.1802868 3.97903932e-13,55.3038908 L3.97903932e-13,4.97379915e-14 Z" id="Rectangle" fill="#95C11F"></path>
            <path d="M89.4844039,46.7489853 C92.0677373,46.7489853 94.0937789,46.1708603 95.5625289,45.0146103 C97.0312789,43.8583603 97.7656539,42.2646103 97.7656539,40.2333603 C97.7656539,39.2021103 97.5833623,38.306277 97.2187789,37.5458603 C96.8541956,36.7854437 96.2812789,36.103152 95.5000289,35.4989853 C94.7187789,34.8948187 93.4896123,34.243777 91.8125289,33.5458603 C90.3229456,32.931277 89.2916956,32.4364853 88.7187789,32.0614853 C88.1458623,31.6864853 87.7344039,31.2880478 87.4844039,30.8661728 C87.2344039,30.4442978 87.1094039,29.9364853 87.1094039,29.3427353 C87.1094039,28.478152 87.4219039,27.7828395 88.0469039,27.2567978 C88.6719039,26.7307562 89.5885706,26.4677353 90.7969039,26.4677353 C92.3906539,26.4677353 94.2031539,26.8948187 96.2344039,27.7489853 L96.2344039,27.7489853 L97.4219039,24.7021103 C95.2552373,23.743777 93.0781539,23.2646103 90.8906539,23.2646103 C88.6094039,23.2646103 86.7916956,23.8114853 85.4375289,24.9052353 C84.0833623,25.9989853 83.4062789,27.4989853 83.4062789,29.4052353 C83.4062789,30.9260687 83.8333623,32.228152 84.6875289,33.3114853 C85.5416956,34.3948187 87.0104456,35.3583603 89.0937789,36.2021103 C91.1146123,37.0146103 92.4479456,37.7177353 93.0937789,38.3114853 C93.7396123,38.9052353 94.0625289,39.6291937 94.0625289,40.4833603 C94.0625289,41.431277 93.7109664,42.1864853 93.0078414,42.7489853 C92.3047164,43.3114853 91.2135706,43.5927353 89.7344039,43.5927353 C88.7239873,43.5927353 87.6328414,43.4521103 86.4609664,43.1708603 C85.2890914,42.8896103 84.1823206,42.5041937 83.1406539,42.0146103 L83.1406539,42.0146103 L83.1406539,45.5458603 C84.7864873,46.3479437 86.9010706,46.7489853 89.4844039,46.7489853 Z M118.078154,46.4364853 L118.078154,26.7958603 L124.796904,26.7958603 L124.796904,23.5927353 L107.625029,23.5927353 L107.625029,26.7958603 L114.343779,26.7958603 L114.343779,46.4364853 L118.078154,46.4364853 Z M137.218779,46.4364853 L139.453154,40.0927353 L148.187529,40.0927353 L150.468779,46.4364853 L154.437529,46.4364853 L145.890654,23.4989853 L141.828154,23.4989853 L133.281279,46.4364853 L137.218779,46.4364853 Z M147.203154,36.8739853 L140.546904,36.8739853 L142.609404,30.9208603 C143.151071,29.400027 143.562529,27.9989853 143.843779,26.7177353 C143.947946,27.134402 144.13805,27.790652 144.414091,28.6864853 C144.690133,29.5823187 144.906279,30.2385687 145.062529,30.6552353 L145.062529,30.6552353 L147.203154,36.8739853 Z M169.187529,46.4364853 L169.187529,37.3114853 L172.875029,37.3114853 L178.343779,46.4364853 L182.593779,46.4364853 L176.140654,36.3271103 C179.098987,35.118777 180.578154,33.0927353 180.578154,30.2489853 C180.578154,28.0198187 179.869821,26.353152 178.453154,25.2489853 C177.036487,24.1448187 174.854196,23.5927353 171.906279,23.5927353 L171.906279,23.5927353 L165.453154,23.5927353 L165.453154,46.4364853 L169.187529,46.4364853 Z M171.781279,34.2177353 L169.187529,34.2177353 L169.187529,26.7489853 L171.656279,26.7489853 C173.354196,26.7489853 174.625029,27.0302353 175.468779,27.5927353 C176.312529,28.1552353 176.734404,29.0823187 176.734404,30.3739853 C176.734404,31.6448187 176.343779,32.603152 175.562529,33.2489853 C174.781279,33.8948187 173.520862,34.2177353 171.781279,34.2177353 L171.781279,34.2177353 Z M201.796904,46.4364853 L201.796904,26.7958603 L208.515654,26.7958603 L208.515654,23.5927353 L191.343779,23.5927353 L191.343779,26.7958603 L198.062529,26.7958603 L198.062529,46.4364853 L201.796904,46.4364853 Z" id="START" fill="#59358C" fill-rule="nonzero"></path>
        </g>
    </g>
</svg>